<svg width="248" height="74" viewBox="0 0 248 74" fill="none" xmlns="http://www.w3.org/2000/svg">
<path d="M66.248 64.4365C66.248 64.2314 66.2161 64.0492 66.1523 63.8896C66.0931 63.7301 65.986 63.5843 65.8311 63.4521C65.6761 63.32 65.4574 63.1924 65.1748 63.0693C64.8968 62.9417 64.5413 62.8118 64.1084 62.6797C63.6344 62.5339 63.1969 62.3721 62.7959 62.1943C62.3994 62.012 62.0531 61.8024 61.7568 61.5654C61.4606 61.3239 61.2305 61.0482 61.0664 60.7383C60.9023 60.4238 60.8203 60.0615 60.8203 59.6514C60.8203 59.2458 60.9046 58.8766 61.0732 58.5439C61.2464 58.2113 61.4902 57.9242 61.8047 57.6826C62.1237 57.4365 62.4997 57.2474 62.9326 57.1152C63.3656 56.9785 63.8441 56.9102 64.3682 56.9102C65.1064 56.9102 65.7422 57.0469 66.2754 57.3203C66.8132 57.5938 67.2256 57.9606 67.5127 58.4209C67.8044 58.8812 67.9502 59.3893 67.9502 59.9453H66.248C66.248 59.6172 66.1774 59.3278 66.0361 59.0771C65.8994 58.8219 65.6898 58.6214 65.4072 58.4756C65.1292 58.3298 64.776 58.2568 64.3477 58.2568C63.9421 58.2568 63.6048 58.3184 63.3359 58.4414C63.0671 58.5645 62.8665 58.7308 62.7344 58.9404C62.6022 59.1501 62.5361 59.387 62.5361 59.6514C62.5361 59.8382 62.5794 60.0091 62.666 60.1641C62.7526 60.3145 62.8848 60.4557 63.0625 60.5879C63.2402 60.7155 63.4635 60.8363 63.7324 60.9502C64.0013 61.0641 64.318 61.1735 64.6826 61.2783C65.234 61.4424 65.7148 61.6247 66.125 61.8252C66.5352 62.0212 66.877 62.2445 67.1504 62.4951C67.4238 62.7458 67.6289 63.0306 67.7656 63.3496C67.9023 63.6641 67.9707 64.0218 67.9707 64.4229C67.9707 64.8421 67.8864 65.2204 67.7178 65.5576C67.5492 65.8903 67.3076 66.1751 66.9932 66.4121C66.6833 66.6445 66.3096 66.8245 65.8721 66.9521C65.4391 67.0752 64.9561 67.1367 64.4229 67.1367C63.9443 67.1367 63.4727 67.0729 63.0078 66.9453C62.5475 66.8177 62.1283 66.624 61.75 66.3643C61.3717 66.0999 61.071 65.7718 60.8477 65.3799C60.6243 64.9834 60.5127 64.5208 60.5127 63.9922H62.2285C62.2285 64.3158 62.2832 64.5915 62.3926 64.8193C62.5065 65.0472 62.6637 65.234 62.8643 65.3799C63.0648 65.5212 63.2972 65.626 63.5615 65.6943C63.8304 65.7627 64.1175 65.7969 64.4229 65.7969C64.8239 65.7969 65.1589 65.7399 65.4277 65.626C65.7012 65.512 65.9062 65.3525 66.043 65.1475C66.1797 64.9424 66.248 64.7054 66.248 64.4365ZM71.0879 59.6035V67H69.4336V59.6035H71.0879ZM69.3242 57.6621C69.3242 57.4115 69.4062 57.2041 69.5703 57.04C69.7389 56.8714 69.9714 56.7871 70.2676 56.7871C70.5592 56.7871 70.7894 56.8714 70.958 57.04C71.1266 57.2041 71.2109 57.4115 71.2109 57.6621C71.2109 57.9082 71.1266 58.1133 70.958 58.2773C70.7894 58.4414 70.5592 58.5234 70.2676 58.5234C69.9714 58.5234 69.7389 58.4414 69.5703 58.2773C69.4062 58.1133 69.3242 57.9082 69.3242 57.6621ZM76.1533 67.1367C75.6064 67.1367 75.112 67.0479 74.6699 66.8701C74.2324 66.6878 73.8587 66.4349 73.5488 66.1113C73.2435 65.7878 73.0088 65.4072 72.8447 64.9697C72.6807 64.5322 72.5986 64.0605 72.5986 63.5547V63.2812C72.5986 62.7025 72.6829 62.1784 72.8516 61.709C73.0202 61.2396 73.2549 60.8385 73.5557 60.5059C73.8564 60.1686 74.2119 59.9111 74.6221 59.7334C75.0322 59.5557 75.4766 59.4668 75.9551 59.4668C76.4837 59.4668 76.9463 59.5557 77.3428 59.7334C77.7393 59.9111 78.0674 60.1618 78.3271 60.4854C78.5915 60.8044 78.7874 61.1849 78.915 61.627C79.0472 62.069 79.1133 62.5566 79.1133 63.0898V63.7939H73.3984V62.6113H77.4863V62.4814C77.4772 62.1852 77.418 61.9072 77.3086 61.6475C77.2038 61.3877 77.042 61.1781 76.8232 61.0186C76.6045 60.859 76.3128 60.7793 75.9482 60.7793C75.6748 60.7793 75.431 60.8385 75.2168 60.957C75.0072 61.071 74.8317 61.2373 74.6904 61.4561C74.5492 61.6748 74.4398 61.9391 74.3623 62.249C74.2894 62.5544 74.2529 62.8984 74.2529 63.2812V63.5547C74.2529 63.8783 74.2962 64.179 74.3828 64.457C74.474 64.7305 74.6061 64.9697 74.7793 65.1748C74.9525 65.3799 75.1621 65.5417 75.4082 65.6602C75.6543 65.7741 75.9346 65.8311 76.249 65.8311C76.6455 65.8311 76.9987 65.7513 77.3086 65.5918C77.6185 65.4323 77.8874 65.2067 78.1152 64.915L78.9834 65.7559C78.8239 65.9883 78.6165 66.2116 78.3613 66.4258C78.1061 66.6354 77.7939 66.8063 77.4248 66.9385C77.0602 67.0706 76.6364 67.1367 76.1533 67.1367ZM82.0459 61.1074V67H80.3984V59.6035H81.9502L82.0459 61.1074ZM81.7793 63.0283L81.2188 63.0215C81.2188 62.5111 81.2826 62.0394 81.4102 61.6064C81.5378 61.1735 81.7246 60.7975 81.9707 60.4785C82.2168 60.1549 82.5221 59.9066 82.8867 59.7334C83.2559 59.5557 83.682 59.4668 84.165 59.4668C84.5023 59.4668 84.8099 59.5169 85.0879 59.6172C85.3704 59.7129 85.6143 59.8656 85.8193 60.0752C86.029 60.2848 86.1885 60.5537 86.2979 60.8818C86.4118 61.21 86.4688 61.6064 86.4688 62.0713V67H84.8213V62.2148C84.8213 61.8548 84.7666 61.5723 84.6572 61.3672C84.5524 61.1621 84.3997 61.0163 84.1992 60.9297C84.0033 60.8385 83.7686 60.793 83.4951 60.793C83.1852 60.793 82.9209 60.8522 82.7021 60.9707C82.488 61.0892 82.3125 61.251 82.1758 61.4561C82.0391 61.6611 81.9388 61.8981 81.875 62.167C81.8112 62.4359 81.7793 62.723 81.7793 63.0283ZM86.3662 62.5908L85.5938 62.7617C85.5938 62.3151 85.6553 61.8936 85.7783 61.4971C85.9059 61.096 86.0905 60.7451 86.332 60.4443C86.5781 60.139 86.8812 59.8997 87.2412 59.7266C87.6012 59.5534 88.0137 59.4668 88.4785 59.4668C88.8568 59.4668 89.194 59.5192 89.4902 59.624C89.791 59.7243 90.0462 59.8838 90.2559 60.1025C90.4655 60.3213 90.625 60.6061 90.7344 60.957C90.8438 61.3034 90.8984 61.7227 90.8984 62.2148V67H89.2441V62.208C89.2441 61.8343 89.1895 61.5449 89.0801 61.3398C88.9753 61.1348 88.8249 60.9935 88.6289 60.916C88.4329 60.834 88.1982 60.793 87.9248 60.793C87.6696 60.793 87.444 60.8408 87.248 60.9365C87.0566 61.0277 86.8949 61.1576 86.7627 61.3262C86.6305 61.4902 86.5303 61.6794 86.4619 61.8936C86.3981 62.1077 86.3662 62.3402 86.3662 62.5908ZM94.248 61.0254V69.8438H92.6006V59.6035H94.1182L94.248 61.0254ZM99.0674 63.2334V63.377C99.0674 63.9147 99.0036 64.4137 98.876 64.874C98.7529 65.3298 98.5684 65.7285 98.3223 66.0703C98.0807 66.4076 97.7822 66.6696 97.4268 66.8564C97.0713 67.0433 96.6611 67.1367 96.1963 67.1367C95.736 67.1367 95.3327 67.0524 94.9863 66.8838C94.6445 66.7106 94.3551 66.4668 94.1182 66.1523C93.8812 65.8379 93.6898 65.4688 93.5439 65.0449C93.4027 64.6165 93.3024 64.1471 93.2432 63.6367V63.083C93.3024 62.5407 93.4027 62.0485 93.5439 61.6064C93.6898 61.1644 93.8812 60.7839 94.1182 60.4648C94.3551 60.1458 94.6445 59.8997 94.9863 59.7266C95.3281 59.5534 95.7269 59.4668 96.1826 59.4668C96.6475 59.4668 97.0599 59.5579 97.4199 59.7402C97.7799 59.918 98.083 60.1732 98.3291 60.5059C98.5752 60.834 98.7598 61.2305 98.8828 61.6953C99.0059 62.1556 99.0674 62.6683 99.0674 63.2334ZM97.4199 63.377V63.2334C97.4199 62.8916 97.388 62.5749 97.3242 62.2832C97.2604 61.987 97.1602 61.7272 97.0234 61.5039C96.8867 61.2806 96.7113 61.1074 96.4971 60.9844C96.2874 60.8568 96.0345 60.793 95.7383 60.793C95.4466 60.793 95.196 60.8431 94.9863 60.9434C94.7767 61.0391 94.6012 61.1735 94.46 61.3467C94.3187 61.5199 94.2093 61.7227 94.1318 61.9551C94.0544 62.1829 93.9997 62.4313 93.9678 62.7002V64.0264C94.0225 64.3545 94.1159 64.6553 94.248 64.9287C94.3802 65.2021 94.5671 65.4209 94.8086 65.585C95.0547 65.7445 95.3691 65.8242 95.752 65.8242C96.0482 65.8242 96.3011 65.7604 96.5107 65.6328C96.7204 65.5052 96.8913 65.3298 97.0234 65.1064C97.1602 64.8786 97.2604 64.6165 97.3242 64.3203C97.388 64.0241 97.4199 63.7096 97.4199 63.377ZM102.123 61.0117V67H100.476V59.6035H102.048L102.123 61.0117ZM104.386 59.5557L104.372 61.0869C104.272 61.0687 104.162 61.055 104.044 61.0459C103.93 61.0368 103.816 61.0322 103.702 61.0322C103.42 61.0322 103.171 61.0732 102.957 61.1553C102.743 61.2327 102.563 61.3467 102.417 61.4971C102.276 61.6429 102.166 61.8206 102.089 62.0303C102.011 62.2399 101.966 62.4746 101.952 62.7344L101.576 62.7617C101.576 62.2969 101.622 61.8662 101.713 61.4697C101.804 61.0732 101.941 60.7246 102.123 60.4238C102.31 60.123 102.542 59.8883 102.82 59.7197C103.103 59.5511 103.429 59.4668 103.798 59.4668C103.898 59.4668 104.005 59.4759 104.119 59.4941C104.238 59.5124 104.326 59.5329 104.386 59.5557ZM108.542 67.1367C107.995 67.1367 107.501 67.0479 107.059 66.8701C106.621 66.6878 106.247 66.4349 105.938 66.1113C105.632 65.7878 105.397 65.4072 105.233 64.9697C105.069 64.5322 104.987 64.0605 104.987 63.5547V63.2812C104.987 62.7025 105.072 62.1784 105.24 61.709C105.409 61.2396 105.644 60.8385 105.944 60.5059C106.245 60.1686 106.601 59.9111 107.011 59.7334C107.421 59.5557 107.865 59.4668 108.344 59.4668C108.872 59.4668 109.335 59.5557 109.731 59.7334C110.128 59.9111 110.456 60.1618 110.716 60.4854C110.98 60.8044 111.176 61.1849 111.304 61.627C111.436 62.069 111.502 62.5566 111.502 63.0898V63.7939H105.787V62.6113H109.875V62.4814C109.866 62.1852 109.807 61.9072 109.697 61.6475C109.592 61.3877 109.431 61.1781 109.212 61.0186C108.993 60.859 108.701 60.7793 108.337 60.7793C108.063 60.7793 107.82 60.8385 107.605 60.957C107.396 61.071 107.22 61.2373 107.079 61.4561C106.938 61.6748 106.828 61.9391 106.751 62.249C106.678 62.5544 106.642 62.8984 106.642 63.2812V63.5547C106.642 63.8783 106.685 64.179 106.771 64.457C106.863 64.7305 106.995 64.9697 107.168 65.1748C107.341 65.3799 107.551 65.5417 107.797 65.6602C108.043 65.7741 108.323 65.8311 108.638 65.8311C109.034 65.8311 109.387 65.7513 109.697 65.5918C110.007 65.4323 110.276 65.2067 110.504 64.915L111.372 65.7559C111.213 65.9883 111.005 66.2116 110.75 66.4258C110.495 66.6354 110.183 66.8063 109.813 66.9385C109.449 67.0706 109.025 67.1367 108.542 67.1367ZM119.295 65.8242C119.564 65.8242 119.805 65.7718 120.02 65.667C120.238 65.5576 120.414 65.4072 120.546 65.2158C120.683 65.0244 120.758 64.8034 120.771 64.5527H122.323C122.314 65.0312 122.173 65.4665 121.899 65.8584C121.626 66.2503 121.264 66.5625 120.812 66.7949C120.361 67.0228 119.862 67.1367 119.315 67.1367C118.75 67.1367 118.258 67.041 117.839 66.8496C117.42 66.6536 117.071 66.3848 116.793 66.043C116.515 65.7012 116.305 65.307 116.164 64.8604C116.027 64.4137 115.959 63.9352 115.959 63.4248V63.1855C115.959 62.6751 116.027 62.1966 116.164 61.75C116.305 61.2988 116.515 60.9023 116.793 60.5605C117.071 60.2188 117.42 59.9521 117.839 59.7607C118.258 59.5648 118.748 59.4668 119.309 59.4668C119.901 59.4668 120.421 59.5853 120.867 59.8223C121.314 60.0547 121.665 60.3805 121.92 60.7998C122.18 61.2145 122.314 61.6976 122.323 62.249H120.771C120.758 61.9756 120.689 61.7295 120.566 61.5107C120.448 61.2874 120.279 61.1097 120.061 60.9775C119.846 60.8454 119.589 60.7793 119.288 60.7793C118.955 60.7793 118.68 60.8477 118.461 60.9844C118.242 61.1165 118.071 61.2988 117.948 61.5312C117.825 61.7591 117.736 62.0166 117.682 62.3037C117.632 62.5863 117.606 62.8802 117.606 63.1855V63.4248C117.606 63.7301 117.632 64.0264 117.682 64.3135C117.732 64.6006 117.818 64.8581 117.941 65.0859C118.069 65.3092 118.242 65.4893 118.461 65.626C118.68 65.7581 118.958 65.8242 119.295 65.8242ZM123.273 63.3838V63.2266C123.273 62.6934 123.351 62.1989 123.506 61.7432C123.661 61.2829 123.884 60.8841 124.176 60.5469C124.472 60.2051 124.832 59.9408 125.256 59.7539C125.684 59.5625 126.167 59.4668 126.705 59.4668C127.247 59.4668 127.73 59.5625 128.154 59.7539C128.583 59.9408 128.945 60.2051 129.241 60.5469C129.537 60.8841 129.763 61.2829 129.918 61.7432C130.073 62.1989 130.15 62.6934 130.15 63.2266V63.3838C130.15 63.917 130.073 64.4115 129.918 64.8672C129.763 65.3229 129.537 65.7217 129.241 66.0635C128.945 66.4007 128.585 66.665 128.161 66.8564C127.737 67.0433 127.257 67.1367 126.719 67.1367C126.176 67.1367 125.691 67.0433 125.263 66.8564C124.839 66.665 124.479 66.4007 124.183 66.0635C123.886 65.7217 123.661 65.3229 123.506 64.8672C123.351 64.4115 123.273 63.917 123.273 63.3838ZM124.921 63.2266V63.3838C124.921 63.7165 124.955 64.0309 125.023 64.3271C125.092 64.6234 125.199 64.8831 125.345 65.1064C125.491 65.3298 125.677 65.5052 125.905 65.6328C126.133 65.7604 126.404 65.8242 126.719 65.8242C127.024 65.8242 127.288 65.7604 127.512 65.6328C127.74 65.5052 127.926 65.3298 128.072 65.1064C128.218 64.8831 128.325 64.6234 128.394 64.3271C128.466 64.0309 128.503 63.7165 128.503 63.3838V63.2266C128.503 62.8984 128.466 62.5885 128.394 62.2969C128.325 62.0007 128.216 61.7386 128.065 61.5107C127.92 61.2829 127.733 61.1051 127.505 60.9775C127.282 60.8454 127.015 60.7793 126.705 60.7793C126.395 60.7793 126.126 60.8454 125.898 60.9775C125.675 61.1051 125.491 61.2829 125.345 61.5107C125.199 61.7386 125.092 62.0007 125.023 62.2969C124.955 62.5885 124.921 62.8984 124.921 63.2266ZM133.165 61.1826V67H131.518V59.6035H133.069L133.165 61.1826ZM132.871 63.0283L132.338 63.0215C132.342 62.4974 132.415 62.0166 132.557 61.5791C132.702 61.1416 132.903 60.7656 133.158 60.4512C133.418 60.1367 133.728 59.8952 134.088 59.7266C134.448 59.5534 134.849 59.4668 135.291 59.4668C135.646 59.4668 135.968 59.5169 136.255 59.6172C136.547 59.7129 136.795 59.8701 137 60.0889C137.21 60.3076 137.369 60.5924 137.479 60.9434C137.588 61.2897 137.643 61.7158 137.643 62.2217V67H135.988V62.2148C135.988 61.8594 135.936 61.5791 135.831 61.374C135.731 61.1644 135.583 61.0163 135.387 60.9297C135.195 60.8385 134.956 60.793 134.669 60.793C134.386 60.793 134.133 60.8522 133.91 60.9707C133.687 61.0892 133.498 61.251 133.343 61.4561C133.192 61.6611 133.076 61.8981 132.994 62.167C132.912 62.4359 132.871 62.723 132.871 63.0283ZM142.715 59.6035V60.8066H138.545V59.6035H142.715ZM139.748 57.792H141.396V64.9561C141.396 65.1839 141.427 65.3594 141.491 65.4824C141.56 65.6009 141.653 65.6807 141.771 65.7217C141.89 65.7627 142.029 65.7832 142.188 65.7832C142.302 65.7832 142.412 65.7764 142.517 65.7627C142.621 65.749 142.706 65.7354 142.77 65.7217L142.776 66.9795C142.64 67.0205 142.48 67.057 142.298 67.0889C142.12 67.1208 141.915 67.1367 141.683 67.1367C141.304 67.1367 140.969 67.0706 140.678 66.9385C140.386 66.8018 140.158 66.5807 139.994 66.2754C139.83 65.9701 139.748 65.5645 139.748 65.0586V57.792ZM145.75 59.6035V67H144.096V59.6035H145.75ZM143.986 57.6621C143.986 57.4115 144.068 57.2041 144.232 57.04C144.401 56.8714 144.633 56.7871 144.93 56.7871C145.221 56.7871 145.451 56.8714 145.62 57.04C145.789 57.2041 145.873 57.4115 145.873 57.6621C145.873 57.9082 145.789 58.1133 145.62 58.2773C145.451 58.4414 145.221 58.5234 144.93 58.5234C144.633 58.5234 144.401 58.4414 144.232 58.2773C144.068 58.1133 143.986 57.9082 143.986 57.6621ZM152.292 59.6035H153.789V66.7949C153.789 67.4603 153.648 68.0254 153.365 68.4902C153.083 68.9551 152.688 69.3083 152.183 69.5498C151.677 69.7959 151.091 69.9189 150.426 69.9189C150.143 69.9189 149.829 69.8779 149.482 69.7959C149.141 69.7139 148.808 69.5817 148.484 69.3994C148.165 69.2217 147.899 68.987 147.685 68.6953L148.457 67.7246C148.721 68.0391 149.013 68.2692 149.332 68.415C149.651 68.5609 149.986 68.6338 150.337 68.6338C150.715 68.6338 151.036 68.5632 151.301 68.4219C151.57 68.2852 151.777 68.0824 151.923 67.8135C152.069 67.5446 152.142 67.2165 152.142 66.8291V61.2783L152.292 59.6035ZM147.268 63.3838V63.2402C147.268 62.6797 147.336 62.1693 147.473 61.709C147.609 61.2441 147.805 60.8454 148.061 60.5127C148.316 60.1755 148.626 59.918 148.99 59.7402C149.355 59.5579 149.767 59.4668 150.228 59.4668C150.706 59.4668 151.114 59.5534 151.451 59.7266C151.793 59.8997 152.078 60.1481 152.306 60.4717C152.534 60.7907 152.711 61.1735 152.839 61.6201C152.971 62.0622 153.069 62.5544 153.133 63.0967V63.5547C153.074 64.0833 152.973 64.5664 152.832 65.0039C152.691 65.4414 152.504 65.8197 152.271 66.1387C152.039 66.4577 151.752 66.7038 151.41 66.877C151.073 67.0501 150.674 67.1367 150.214 67.1367C149.763 67.1367 149.355 67.0433 148.99 66.8564C148.63 66.6696 148.32 66.4076 148.061 66.0703C147.805 65.7331 147.609 65.3366 147.473 64.8809C147.336 64.4206 147.268 63.9215 147.268 63.3838ZM148.915 63.2402V63.3838C148.915 63.721 148.947 64.0355 149.011 64.3271C149.079 64.6188 149.182 64.8763 149.318 65.0996C149.46 65.3184 149.637 65.4915 149.852 65.6191C150.07 65.7422 150.328 65.8037 150.624 65.8037C151.011 65.8037 151.328 65.7217 151.574 65.5576C151.825 65.3936 152.016 65.1725 152.148 64.8945C152.285 64.612 152.381 64.2975 152.436 63.9512V62.7139C152.408 62.445 152.351 62.1943 152.265 61.9619C152.183 61.7295 152.071 61.5267 151.93 61.3535C151.788 61.1758 151.611 61.0391 151.396 60.9434C151.182 60.8431 150.929 60.793 150.638 60.793C150.341 60.793 150.084 60.8568 149.865 60.9844C149.646 61.112 149.466 61.2874 149.325 61.5107C149.188 61.734 149.086 61.9938 149.018 62.29C148.949 62.5863 148.915 62.903 148.915 63.2402ZM155.184 63.3838V63.2266C155.184 62.6934 155.261 62.1989 155.416 61.7432C155.571 61.2829 155.794 60.8841 156.086 60.5469C156.382 60.2051 156.742 59.9408 157.166 59.7539C157.594 59.5625 158.077 59.4668 158.615 59.4668C159.158 59.4668 159.641 59.5625 160.064 59.7539C160.493 59.9408 160.855 60.2051 161.151 60.5469C161.448 60.8841 161.673 61.2829 161.828 61.7432C161.983 62.1989 162.061 62.6934 162.061 63.2266V63.3838C162.061 63.917 161.983 64.4115 161.828 64.8672C161.673 65.3229 161.448 65.7217 161.151 66.0635C160.855 66.4007 160.495 66.665 160.071 66.8564C159.647 67.0433 159.167 67.1367 158.629 67.1367C158.087 67.1367 157.601 67.0433 157.173 66.8564C156.749 66.665 156.389 66.4007 156.093 66.0635C155.797 65.7217 155.571 65.3229 155.416 64.8672C155.261 64.4115 155.184 63.917 155.184 63.3838ZM156.831 63.2266V63.3838C156.831 63.7165 156.865 64.0309 156.934 64.3271C157.002 64.6234 157.109 64.8831 157.255 65.1064C157.401 65.3298 157.588 65.5052 157.815 65.6328C158.043 65.7604 158.314 65.8242 158.629 65.8242C158.934 65.8242 159.199 65.7604 159.422 65.6328C159.65 65.5052 159.837 65.3298 159.982 65.1064C160.128 64.8831 160.235 64.6234 160.304 64.3271C160.377 64.0309 160.413 63.7165 160.413 63.3838V63.2266C160.413 62.8984 160.377 62.5885 160.304 62.2969C160.235 62.0007 160.126 61.7386 159.976 61.5107C159.83 61.2829 159.643 61.1051 159.415 60.9775C159.192 60.8454 158.925 60.7793 158.615 60.7793C158.305 60.7793 158.036 60.8454 157.809 60.9775C157.585 61.1051 157.401 61.2829 157.255 61.5107C157.109 61.7386 157.002 62.0007 156.934 62.2969C156.865 62.5885 156.831 62.8984 156.831 63.2266ZM163.51 66.1797C163.51 65.9245 163.596 65.7103 163.77 65.5371C163.943 65.3594 164.177 65.2705 164.474 65.2705C164.774 65.2705 165.009 65.3594 165.178 65.5371C165.351 65.7103 165.438 65.9245 165.438 66.1797C165.438 66.4349 165.351 66.6491 165.178 66.8223C165.009 66.9954 164.774 67.082 164.474 67.082C164.177 67.082 163.943 66.9954 163.77 66.8223C163.596 66.6491 163.51 66.4349 163.51 66.1797Z" fill="white"/>
<path d="M61.1914 8.68359H65.8887C67.1712 8.68359 68.0729 8.80078 68.5938 9.03516C69.1146 9.26953 69.554 9.68294 69.9121 10.2754C70.2702 10.8678 70.4492 11.5384 70.4492 12.2871C70.4492 12.9772 70.2962 13.6022 69.9902 14.1621C69.6842 14.7155 69.2871 15.1257 68.7988 15.3926C69.4954 15.64 70.0391 16.0632 70.4297 16.6621C70.8268 17.2611 71.0254 17.9902 71.0254 18.8496C71.0254 19.8913 70.7747 20.7734 70.2734 21.4961C69.7721 22.2122 69.1797 22.6549 68.4961 22.8242C68.0208 22.9414 66.9173 23 65.1855 23H61.1914V8.68359ZM63.5547 11.0664V14.377H65.1172C66.0547 14.377 66.6341 14.3607 66.8555 14.3281C67.2591 14.263 67.5749 14.0938 67.8027 13.8203C68.0306 13.5404 68.1445 13.1628 68.1445 12.6875C68.1445 12.2643 68.0501 11.9225 67.8613 11.6621C67.679 11.3952 67.4544 11.2292 67.1875 11.1641C66.9271 11.099 66.1719 11.0664 64.9219 11.0664H63.5547ZM63.5547 16.7598V20.5879H65.752C66.7155 20.5879 67.334 20.5391 67.6074 20.4414C67.8809 20.3372 68.1087 20.1387 68.291 19.8457C68.4798 19.5462 68.5742 19.1686 68.5742 18.7129C68.5742 18.2441 68.4733 17.86 68.2715 17.5605C68.0762 17.2546 67.8125 17.0462 67.4805 16.9355C67.1549 16.8184 66.4844 16.7598 65.4688 16.7598H63.5547ZM72.5586 15.9297C72.5586 14.224 72.8092 12.821 73.3105 11.7207C73.8184 10.6139 74.4792 9.79036 75.293 9.25C76.1068 8.70964 77.0931 8.43945 78.252 8.43945C79.9316 8.43945 81.2988 9.08073 82.3535 10.3633C83.4147 11.6458 83.9453 13.472 83.9453 15.8418C83.9453 18.2376 83.3854 20.1094 82.2656 21.457C81.2826 22.6484 79.9479 23.2441 78.2617 23.2441C76.5625 23.2441 75.2214 22.6549 74.2383 21.4766C73.1185 20.1289 72.5586 18.2799 72.5586 15.9297ZM75 15.832C75 17.4792 75.3125 18.7161 75.9375 19.543C76.5625 20.3633 77.3372 20.7734 78.2617 20.7734C79.1927 20.7734 79.9642 20.3665 80.5762 19.5527C81.1882 18.7324 81.4941 17.4759 81.4941 15.7832C81.4941 14.123 81.1947 12.8958 80.5957 12.1016C80.0033 11.3073 79.2253 10.9102 78.2617 10.9102C77.2982 10.9102 76.5137 11.3105 75.9082 12.1113C75.3027 12.9121 75 14.1523 75 15.832ZM88.4473 23V11.1055H84.9609V8.68359H94.2871V11.1055H90.8105V23H88.4473ZM95.752 23V8.68359H98.1152V23H95.752ZM107.91 17.7363L110.205 18.625C109.847 20.2266 109.251 21.3984 108.418 22.1406C107.585 22.8763 106.559 23.2441 105.342 23.2441C103.812 23.2441 102.572 22.6549 101.621 21.4766C100.527 20.1159 99.9805 18.2799 99.9805 15.9688C99.9805 13.5273 100.531 11.6165 101.631 10.2363C102.588 9.03841 103.874 8.43945 105.488 8.43945C106.803 8.43945 107.904 8.88867 108.789 9.78711C109.421 10.4251 109.883 11.3724 110.176 12.6289L107.832 13.3125C107.682 12.5378 107.383 11.9453 106.934 11.5352C106.491 11.1185 105.967 10.9102 105.361 10.9102C104.495 10.9102 103.789 11.2878 103.242 12.043C102.695 12.7982 102.422 14.0449 102.422 15.7832C102.422 17.5866 102.689 18.8691 103.223 19.6309C103.757 20.3926 104.45 20.7734 105.303 20.7734C105.928 20.7734 106.468 20.5326 106.924 20.0508C107.38 19.5625 107.708 18.791 107.91 17.7363ZM122.812 23H120.234L119.209 19.748H114.521L113.555 23H111.035L115.605 8.68359H118.115L122.812 23ZM118.447 17.3359L116.836 12.0234L115.244 17.3359H118.447Z" fill="white"/>
<path d="M65.52 30.36H61.748V46H73.731V42.504H65.52V30.36ZM80.187 30.36H76.415V46H80.187V30.36ZM98.9643 30.36H95.1693V39.905L87.2573 30.36H83.4623V46H87.2573V36.432L95.1693 46H98.9643V30.36ZM108.133 30.084C104.568 30.084 101.762 32.2 101.762 35.052C101.762 38.525 105.879 39.399 108.225 39.951C109.674 40.296 110.985 40.641 110.985 41.63C110.985 42.297 110.364 43.01 108.685 43.01C105.58 43.01 105.281 40.526 105.281 40.526H101.532C101.532 42.964 103.579 46.276 108.478 46.276C112.135 46.276 114.757 44.413 114.757 41.423C114.757 37.973 111.284 37.145 108.823 36.501C106.615 35.926 105.58 35.627 105.58 34.868C105.58 33.971 106.96 33.465 108.087 33.465C109.697 33.465 110.617 34.523 110.617 35.305H114.366C114.366 32.867 112.204 30.084 108.133 30.084ZM129.158 46H133.183L126.467 30.36H122.258L115.565 46H119.567L120.602 43.562H128.146L129.158 46ZM121.913 40.48L124.397 34.638L126.835 40.48H121.913ZM147.717 30.36H135.734V46H139.506V40.917H146.36V37.444H139.506V33.856H147.717V30.36ZM160.379 46H164.404L157.688 30.36H153.479L146.786 46H150.788L151.823 43.562H159.367L160.379 46ZM153.134 40.48L155.618 34.638L158.056 40.48H153.134ZM174.522 30.36H166.955V46H170.727V42.113H173.487L175.833 46H180.525L177.305 41.285C178.984 40.388 180.088 38.479 180.088 36.225C180.088 32.821 177.696 30.36 174.522 30.36ZM173.993 33.856C175.258 33.856 176.293 34.937 176.293 36.225C176.293 37.536 175.258 38.617 173.97 38.617H170.727V33.856H173.993ZM202.491 30.36H198.282L192.854 41.837L187.403 30.36H183.217V46H186.989V38.019L190.738 46H194.947L198.696 38.019V46H202.491V30.36ZM218.643 46H222.668L215.952 30.36H211.743L205.05 46H209.052L210.087 43.562H217.631L218.643 46ZM211.398 40.48L213.882 34.638L216.32 40.48H211.398Z" fill="white"/>
<path d="M32.9838 16.2349C26.2103 16.8372 20.8673 19.849 17.6699 26.2599C14.7249 32.1545 15.945 38.4363 15.8608 44.632C15.8608 45.4495 16.4919 45.9228 17.3333 45.9228C18.1748 45.8798 18.6796 45.4065 18.7637 44.589C18.8479 43.9866 18.8058 43.3412 18.8479 42.7389C18.9741 39.2968 18.5955 35.8547 19.1424 32.4126C20.2783 25.2703 27.0518 20.0642 33.6569 19.72C35.5502 19.6339 37.2751 19.6339 38.9158 19.6339C40.0938 19.6339 41.2298 19.6769 42.4498 19.6339C43.5016 19.5909 44.5113 19.2467 44.4692 17.9129C44.4272 16.6221 43.5437 16.2349 42.4078 16.2349C40.767 16.2349 39.0841 16.2349 37.4434 16.2349C36.5178 16.2349 35.5502 16.1918 34.6246 16.1918C34.0777 16.1488 33.5307 16.1488 32.9838 16.2349Z" fill="white"/>
<path d="M22.0453 39.8562C22.0453 38.0491 22.1294 36.242 22.0453 34.4349C21.7508 28.7555 27.3042 22.5597 33.6149 22.6028C37.5696 22.6028 41.5663 22.6458 45.5631 22.6458C46.4466 22.6458 47.246 22.7749 47.5825 23.7645C47.9612 24.8831 47.1618 25.8297 45.7314 25.8727C41.9871 26.0018 38.2006 26.0879 34.4563 26.1309C28.6084 26.2169 25.2006 29.7021 25.1586 35.6827C25.1586 39.2108 25.1586 42.6959 25.1586 46.224C25.1586 46.9555 25.1165 47.7299 24.4434 48.2032C23.9385 48.5474 23.4337 48.6765 22.8867 48.3753C22.2136 48.0311 22.0032 47.3857 22.0032 46.6973C22.0032 44.3739 22.0032 42.1366 22.0453 39.8562Z" fill="#FFCE00"/>
<path d="M38.1586 29.0997C39.7152 29.0997 41.2719 29.0997 42.7864 29.0997C43.9223 29.0997 45.0162 29.3148 44.9741 30.7347C44.932 32.0685 43.9223 32.2836 42.8285 32.2836C40.1359 32.2836 37.4013 32.2836 34.7087 32.3266C32.1845 32.3697 31.5113 33.1011 31.4693 35.6827C31.4693 38.2212 31.4693 40.7597 31.4272 43.2983C31.4272 44.503 31.2589 45.7508 29.7864 45.7508C28.2719 45.7508 28.0194 44.503 28.0194 43.2122C28.0194 40.2864 27.9774 37.3177 28.0194 34.3919C28.0615 31.251 30.0388 29.1857 33.11 29.0997C34.835 29.0567 36.5178 29.0997 38.1586 29.0997Z" fill="#FFCE00"/>
<path d="M15.9029 4.44575C15.8188 4.96206 15.8188 5.47837 15.8188 5.95166C15.7767 8.49019 15.8188 11.0287 15.7347 13.6103C15.6926 15.5895 15.0194 16.1918 13.0842 16.2779C10.2654 16.3639 7.44663 16.45 4.62786 16.5361C3.7023 16.5791 2.94501 16.8803 2.98708 17.9989C2.98708 19.0316 3.74437 19.2897 4.58579 19.3327C6.01621 19.3758 7.44663 19.3327 9.42398 19.3327C9.92883 19.2897 10.4337 19.3327 11.0227 19.3327C12.2007 19.3758 13.547 19.4188 14.8512 19.0316C17.2492 18.3431 18.4693 16.7512 18.5114 14.2557C18.5534 12.8358 18.6796 11.416 18.7217 10.0391C18.7638 8.23203 18.7638 6.42494 18.7638 4.61785C18.7638 3.7143 18.2589 3.11194 17.3334 3.11194C17.3334 3.11194 17.3334 3.11194 17.2913 3.11194C16.4499 3.06891 16.0292 3.62825 15.9029 4.44575Z" fill="white"/>
<path d="M21.7929 8.44717C21.9191 6.42495 21.6667 4.05852 21.9612 1.69209C22.0874 0.659464 22.4239 -0.115004 23.5599 0.0140745C24.6537 0.100126 24.822 0.960647 24.822 1.86419C24.822 5.69351 24.822 9.56585 24.822 13.3952C24.822 14.0406 24.7799 14.6429 24.3592 15.1592C23.8544 15.7616 23.3074 15.8907 21.7929 16.5791C21.7508 16.5361 21.7929 10.6415 21.7929 8.44717Z" fill="#BF0811"/>
<path d="M8.20388 22.7318C10.2654 22.7318 12.2848 22.7318 14.3463 22.7318C14.767 22.7318 15.8188 22.7318 15.8188 22.7318C15.5663 23.4202 15.2298 24.0656 14.9353 24.4529C14.3883 25.1843 13.7573 25.4855 12.8738 25.4855C9.17152 25.4855 5.46926 25.4855 1.76699 25.4855C0.883495 25.4855 0 25.2703 0 24.1517C0 23.076 0.841424 22.7748 1.72492 22.7748C3.91262 22.7318 6.05825 22.7318 8.20388 22.7318Z" fill="#BF0811"/>
<path d="M4.29127 29.1427C3.28157 29.1427 2.69257 29.659 2.69257 30.6916C2.6505 31.8103 3.44985 32.1545 4.33335 32.1975C5.09063 32.2406 5.84791 32.2406 6.60519 32.1975C6.94176 32.1975 7.27833 32.1975 7.65697 32.1975C8.83496 32.1975 9.97089 32.2406 11.1489 32.1975C12.0744 32.1545 12.7897 31.7243 12.7897 30.6486C12.7897 29.616 12.0744 29.1427 11.1068 29.1427C9.92881 29.1427 8.75082 29.1427 7.53076 29.1427C6.43691 29.1427 5.38513 29.1427 4.29127 29.1427Z" fill="white"/>
<path d="M28.3981 4.61791C28.356 5.77961 28.3981 6.98434 28.3981 8.14604C28.3981 9.30774 28.3981 10.5125 28.3981 11.6742C28.3981 12.5777 28.7767 13.2231 29.7444 13.2661C30.712 13.3092 31.1748 12.7068 31.1748 11.8032C31.2169 9.39379 31.2169 6.98434 31.1748 4.53185C31.1748 3.71436 30.712 3.112 29.8706 3.06897C29.8285 3.06897 29.8285 3.06897 29.7864 3.06897C28.8609 3.112 28.4402 3.75739 28.3981 4.61791Z" fill="white"/>
</svg>
