<svg width="28" height="29" viewBox="0 0 28 29" fill="none" xmlns="http://www.w3.org/2000/svg">
<path d="M5.52024 2.78021C5.73609 2.62278 5.94395 2.47322 6.1598 2.31578C6.24774 2.27642 6.33568 2.22919 6.39164 2.15048C6.64746 2.00091 6.91128 1.85135 7.16711 1.70966C7.23106 1.66243 7.319 1.65456 7.37496 1.58372C7.38296 1.56797 7.39895 1.5601 7.40694 1.54436C7.83864 1.35544 8.26235 1.15865 8.69406 0.977597C9.32562 0.717831 9.98117 0.521039 10.6447 0.363605C11.2363 0.221915 11.8279 0.111712 12.4275 0.05661C12.8592 0.0172516 13.2989 -0.00636345 13.7386 0.00150823C14.3302 0.00937991 14.9218 -0.0142351 15.5054 0.05661C15.9611 0.111712 16.4168 0.166814 16.8644 0.269145C17.4081 0.395092 17.9437 0.513167 18.4713 0.686344C18.6792 0.749318 18.8871 0.820163 19.0869 0.891008C19.1669 0.953982 19.2708 0.969725 19.3587 1.00908C19.4467 1.04844 19.5186 1.11929 19.6305 1.12716C19.7105 1.15865 19.7665 1.22949 19.8624 1.22162C20.0303 1.30034 20.2062 1.37905 20.374 1.45777C20.414 1.52861 20.5019 1.52074 20.5659 1.5601C21.0456 1.84348 21.5252 2.11899 21.9809 2.44173C22.9882 3.15018 23.8996 3.96096 24.7071 4.88982C25.2267 5.48807 25.6984 6.10206 26.0981 6.77902C26.1541 6.85774 26.1781 6.94433 26.25 7.0073C26.4818 7.46386 26.7297 7.91255 26.9215 8.38485C27.2813 9.24286 27.5531 10.1245 27.721 11.0376C27.8569 11.7618 27.9368 12.486 27.9848 13.2259C28.0328 14.0446 27.9608 14.8475 27.8569 15.6583C27.713 16.7761 27.4172 17.8466 27.0255 18.9014C27.0015 18.9565 26.9535 19.0037 26.9615 19.0667C26.9056 19.1376 26.8656 19.2084 26.8656 19.295C26.7537 19.4839 26.6577 19.6807 26.5858 19.8932C26.5218 19.9956 26.4659 20.0979 26.4019 20.1924C25.6184 21.625 24.5951 22.8766 23.364 23.9708C22.5006 24.7422 21.5572 25.3877 20.5419 25.9466C20.406 26.0174 20.2701 26.0883 20.1422 26.1512C19.8384 26.285 19.5346 26.411 19.2308 26.5448C18.7432 26.718 18.2555 26.8912 17.7438 27.025C17.2802 27.1431 16.8165 27.2297 16.3448 27.3162C15.4254 27.4894 14.4981 27.5288 13.5627 27.5052C13.4028 27.5052 13.2509 27.4973 13.091 27.4737C12.8192 27.4343 12.5794 27.513 12.3316 27.6232C11.5881 27.9538 10.8126 28.1979 10.0211 28.4025C9.96518 28.4104 9.90922 28.3947 9.86126 28.434C9.82128 28.4419 9.78931 28.4419 9.74933 28.4498C9.66139 28.434 9.58944 28.4576 9.51749 28.497C9.48551 28.5049 9.44554 28.5049 9.41356 28.5127C9.23768 28.5364 9.0618 28.5285 8.90191 28.6229C8.85395 28.6229 8.81398 28.6229 8.76601 28.6308C8.55016 28.6229 8.3423 28.6702 8.12645 28.6938C7.99854 28.7095 7.85463 28.6544 7.74271 28.7568C7.70274 28.7568 7.66277 28.7568 7.62279 28.7568C7.53485 28.6623 7.43092 28.7489 7.34299 28.7489C6.53554 28.7646 5.72809 28.7174 4.92065 28.6623C4.90466 28.6544 4.89666 28.6466 4.88068 28.6387C4.71279 28.6151 4.53691 28.6151 4.37702 28.5678C4.2571 28.5678 4.16117 28.4891 4.04125 28.497C4.01727 28.4891 3.9693 28.4891 3.96131 28.4734C3.94532 28.4183 4.00927 28.4025 4.04125 28.3868C4.20914 28.3081 4.37702 28.2451 4.54491 28.1664C4.60087 28.1428 4.65683 28.1113 4.7048 28.0798C4.76076 28.0483 4.83271 28.0404 4.88068 27.9775C5.15249 27.8673 5.39232 27.7256 5.61617 27.5445C5.69612 27.5052 5.79205 27.4815 5.83202 27.3871C5.91197 27.3871 5.93595 27.3005 5.99991 27.2769C6.07985 27.2611 6.12782 27.206 6.16779 27.1431C6.47958 26.9305 6.75139 26.6786 6.98323 26.3795C7.05518 26.348 7.08716 26.2929 7.11914 26.2221C7.12713 26.2221 7.12713 26.2221 7.13513 26.2142C7.4709 25.86 7.41494 25.8993 7.07117 25.7025C6.35966 25.3011 5.69612 24.8288 5.06455 24.3093C4.08922 23.4985 3.22581 22.5854 2.48232 21.5699C2.14655 21.1055 1.85076 20.6174 1.56295 20.1215C1.53897 20.0349 1.491 19.9562 1.42705 19.8932C1.3551 19.6965 1.26716 19.5075 1.15523 19.3344C1.14724 19.2163 1.08328 19.1297 1.02732 19.0352C0.891415 18.6416 0.731525 18.2638 0.611607 17.8624C0.427733 17.2405 0.275837 16.6108 0.179903 15.9731C0.0280075 14.9971 -0.0359486 14.0131 0.020013 13.0291C0.0599856 12.2813 0.147925 11.5414 0.299821 10.8093C0.443722 10.1166 0.643585 9.43965 0.899409 8.77843C0.963365 8.60525 1.03532 8.43208 1.10727 8.25103C1.18721 8.18806 1.16323 8.08572 1.22718 8.01488C1.45103 7.53471 1.69886 7.06241 1.97867 6.61372C1.98666 6.60585 1.99466 6.59798 2.00265 6.58223C2.01065 6.55862 2.01065 6.54287 2.01864 6.51926C2.0746 6.48777 2.10658 6.44841 2.11457 6.38544C2.28246 6.14142 2.45834 5.8974 2.62622 5.65337C2.69817 5.59827 2.74614 5.5353 2.78611 5.45658C2.83408 5.39361 2.90603 5.33851 2.93001 5.25979C3.02595 5.20469 3.07392 5.11023 3.12988 5.02364C3.32974 4.80323 3.5376 4.57495 3.73746 4.35455C3.81741 4.27583 3.88936 4.19711 3.9693 4.12627C4.05724 4.03968 4.15318 3.94522 4.24111 3.85863C4.30507 3.80353 4.38502 3.7563 4.409 3.66971C4.54491 3.62248 4.60087 3.49653 4.7048 3.42569C4.77675 3.3942 4.82471 3.33123 4.87268 3.26826C5.01658 3.18954 5.12051 3.05572 5.24842 2.96126C5.36035 2.90616 5.44029 2.84318 5.52024 2.78021ZM3.00996 18.2874C3.01795 18.3268 3.01795 18.374 3.03394 18.4134C3.20982 18.7991 3.3857 19.1769 3.60155 19.539C4.2571 20.6883 5.09653 21.6959 6.10384 22.5696C6.85532 23.2151 7.65477 23.7976 8.55016 24.2463C8.96587 24.4588 9.38958 24.6635 9.82928 24.8288C9.96518 24.8839 10.0052 24.9469 9.95719 25.0807C9.90922 25.1988 9.89323 25.3247 9.84527 25.4428C9.56546 26.1827 9.0618 26.7416 8.38227 27.1431C8.32631 27.1745 8.20639 27.206 8.23837 27.2769C8.27035 27.3635 8.37428 27.3084 8.44623 27.3005C8.47021 27.3005 8.49419 27.2926 8.51018 27.2926C9.26966 27.2375 9.98917 27.0407 10.6927 26.7573C11.3562 26.4897 11.9558 26.104 12.4994 25.6317C12.5554 25.5845 12.6114 25.553 12.6913 25.553C13.2349 25.5451 13.7706 25.5451 14.3142 25.5215C14.7299 25.5058 15.1456 25.4743 15.5533 25.4192C16.2169 25.3326 16.8644 25.183 17.504 24.9862C18.4634 24.695 19.3827 24.3093 20.2381 23.7819C21.5812 22.9632 22.6845 21.9005 23.6278 20.6568C24.9629 18.8935 25.6824 16.9099 25.8343 14.7215C25.9062 13.6746 25.8503 12.6277 25.6344 11.5965C25.3946 10.4472 25.0428 9.33732 24.4672 8.30613C23.8437 7.18048 23.0442 6.19652 22.0929 5.33064C21.3174 4.63006 20.486 4.00819 19.5586 3.52015C18.943 3.19741 18.3035 2.89829 17.6239 2.70937C17.496 2.62278 17.3521 2.62278 17.2082 2.57555C16.7365 2.45747 16.2649 2.34727 15.7772 2.2843C14.8338 2.15835 13.8825 2.15835 12.9391 2.22919C12.1237 2.29217 11.3163 2.41811 10.5248 2.64639C9.76532 2.8668 9.03782 3.15018 8.35029 3.52015C6.83134 4.3388 5.59219 5.45658 4.54491 6.7869C3.63353 7.9519 2.946 9.21925 2.53029 10.6361C2.27447 11.4942 2.13856 12.3758 2.11457 13.2653C2.09059 14.0288 2.14655 14.7924 2.25048 15.5481C2.31444 16.0282 2.39438 16.5084 2.54628 16.9729C2.53828 17.0594 2.55427 17.1382 2.60224 17.2169C2.69018 17.4688 2.76213 17.7285 2.87405 17.9726C2.89004 18.067 2.91403 18.1615 2.97798 18.2402C2.97798 18.2717 2.98598 18.2874 3.00996 18.2874Z" fill="white"/>
<path d="M17.6601 16.8879C17.716 17.051 17.8597 17.1407 17.9555 17.2711C18.3947 17.8174 18.754 18.4044 18.8818 19.1138C18.9776 19.6682 18.8977 20.1574 18.5304 20.614C17.9076 21.3804 17.197 22.0245 16.3346 22.5137C15.9274 22.742 15.5361 22.7339 15.1209 22.6442C14.5221 22.5219 13.9632 22.3181 13.4601 21.9756C13.1008 21.7229 12.7894 21.4049 12.462 21.1032C11.2404 19.9699 10.0985 18.7469 9.08447 17.4097C8.45367 16.5781 7.87079 15.7138 7.38372 14.7844C7.35976 14.7436 7.34379 14.7028 7.30387 14.6784C7.2879 14.6131 7.27992 14.5398 7.20805 14.5071C7.15216 14.3359 7.07231 14.1647 6.96053 14.0261C6.95254 13.9364 6.89665 13.863 6.86471 13.7897C6.79285 13.651 6.72897 13.5124 6.6571 13.3738C6.61718 13.2841 6.56927 13.1863 6.52935 13.0966C6.27384 12.5259 6.09817 11.9225 6.05825 11.2947C6.02631 10.6425 6.17802 10.0391 6.50539 9.46838C6.86471 8.84057 7.29588 8.28614 7.94265 7.93555C8.27801 7.74802 8.63732 7.64203 9.01261 7.5768C9.14835 7.55234 9.2761 7.5768 9.40386 7.65018C10.402 8.17199 11.0647 9.00364 11.4879 10.0391C11.6795 10.5039 11.8472 10.9767 11.8232 11.4986C11.8153 11.6861 11.7673 11.841 11.6476 11.9796C11.2244 12.4607 10.7533 12.8683 10.1065 13.0069C9.97876 13.0314 9.98675 13.1129 10.0187 13.2108C10.2822 13.9201 10.6575 14.5642 11.1366 15.1431C11.6795 15.7954 12.3023 16.3743 12.973 16.8798C13.0848 16.9613 13.1647 16.9776 13.2765 16.8798C13.6837 16.5455 14.0989 16.2193 14.5221 15.9095C14.9213 15.616 15.3765 15.5997 15.8476 15.6894C16.2149 15.7628 16.5422 15.934 16.8456 16.1623C16.8696 16.2193 16.9255 16.2438 16.9734 16.2683C17.0692 16.3824 17.173 16.4966 17.3167 16.5455C17.3167 16.5699 17.3327 16.5781 17.3487 16.5781C17.3487 16.6026 17.3647 16.6107 17.3806 16.6107C17.3806 16.6352 17.3966 16.6433 17.4126 16.6433C17.4126 16.6678 17.4285 16.6759 17.4445 16.6759C17.4605 16.7738 17.5164 16.8308 17.6122 16.8472C17.6282 16.8798 17.6361 16.8879 17.6601 16.8879Z" fill="white"/>
<path d="M13.8185 5.58535C13.9703 5.52773 14.0377 5.36309 14.2064 5.3384C14.2907 5.32194 14.3834 5.3137 14.4678 5.29724C15.1676 5.39602 15.8506 5.54419 16.5168 5.79114C17.6298 6.20272 18.5995 6.81186 19.4427 7.62679C20.7749 8.92739 21.5844 10.4832 21.8627 12.3024C21.9723 13.0267 21.9723 13.7594 21.8711 14.4837C21.8289 14.7883 21.576 15.0517 21.264 15.1176C20.952 15.1834 20.6232 15.06 20.4292 14.8048C20.3955 14.7636 20.3702 14.7225 20.3365 14.6731C20.3196 14.6155 20.3027 14.5496 20.2774 14.492C20.2859 14.352 20.2943 14.2121 20.3027 14.0804C20.3449 14.0228 20.3365 13.9652 20.3196 13.9075C20.3196 13.8499 20.328 13.7923 20.328 13.7347C20.3449 13.6524 20.3449 13.5618 20.328 13.4795C20.3449 13.4136 20.3449 13.3478 20.328 13.2902C20.3365 13.2078 20.3533 13.1173 20.3112 13.035C20.2774 12.1871 20.0582 11.3804 19.6788 10.6149C19.3162 9.87403 18.8271 9.22373 18.22 8.65575C17.2756 7.77496 16.1542 7.21521 14.8809 6.94357C14.746 6.91064 14.6027 6.90241 14.4593 6.87772C14.3834 6.86125 14.3076 6.85302 14.2317 6.83656C13.9112 6.73778 13.7089 6.54022 13.633 6.21095C13.5993 6.06278 13.6499 5.92285 13.6667 5.78291C13.7257 5.72529 13.7763 5.65943 13.8185 5.58535Z" fill="white"/>
<path d="M18.0671 14.3784C17.5621 14.2784 17.3457 13.9937 17.3858 13.5013C17.5221 11.901 16.6163 10.5238 15.0612 9.95446C14.7886 9.85444 14.5081 9.81597 14.2275 9.76211C13.8027 9.67748 13.5622 9.32357 13.6343 8.90041C13.6985 8.55419 14.0912 8.27721 14.476 8.33106C15.2856 8.43878 16.0391 8.69267 16.7124 9.14661C17.8587 9.91599 18.5802 10.9623 18.8367 12.2934C18.9409 12.8319 18.9489 13.3782 18.8447 13.9245C18.8046 13.9937 18.7565 14.0553 18.7164 14.1245C18.6042 14.2399 18.4759 14.3245 18.3076 14.3553C18.2836 14.3476 18.2755 14.3553 18.2675 14.3784C18.2034 14.3784 18.1313 14.3784 18.0671 14.3784Z" fill="white"/>
</svg>
