<svg width="182" height="41" viewBox="0 0 182 41" fill="none" xmlns="http://www.w3.org/2000/svg">
<path d="M53.8936 7.2627H57.4165C58.3784 7.2627 59.0547 7.35059 59.4453 7.52637C59.8359 7.70215 60.1655 8.01221 60.4341 8.45654C60.7026 8.90088 60.8369 9.40381 60.8369 9.96533C60.8369 10.4829 60.7222 10.9517 60.4927 11.3716C60.2632 11.7866 59.9653 12.0942 59.5991 12.2944C60.1216 12.48 60.5293 12.7974 60.8223 13.2466C61.1201 13.6958 61.269 14.2427 61.269 14.8872C61.269 15.6685 61.0811 16.3301 60.7051 16.8721C60.3291 17.4092 59.8848 17.7412 59.3721 17.8682C59.0156 17.9561 58.188 18 56.8892 18H53.8936V7.2627ZM55.666 9.0498V11.5327H56.8379C57.541 11.5327 57.9756 11.5205 58.1416 11.4961C58.4443 11.4473 58.6812 11.3203 58.8521 11.1152C59.0229 10.9053 59.1084 10.6221 59.1084 10.2656C59.1084 9.94824 59.0376 9.69189 58.896 9.49658C58.7593 9.29639 58.5908 9.17188 58.3906 9.12305C58.1953 9.07422 57.6289 9.0498 56.6914 9.0498H55.666ZM55.666 13.3198V16.1909H57.314C58.0366 16.1909 58.5005 16.1543 58.7056 16.0811C58.9106 16.0029 59.0815 15.854 59.2183 15.6343C59.3599 15.4097 59.4307 15.1265 59.4307 14.7847C59.4307 14.4331 59.355 14.145 59.2036 13.9204C59.0571 13.6909 58.8594 13.5347 58.6104 13.4517C58.3662 13.3638 57.8633 13.3198 57.1016 13.3198H55.666ZM62.4189 12.6973C62.4189 11.418 62.6069 10.3657 62.9829 9.54053C63.3638 8.71045 63.8594 8.09277 64.4697 7.6875C65.0801 7.28223 65.8198 7.07959 66.689 7.07959C67.9487 7.07959 68.9741 7.56055 69.7651 8.52246C70.561 9.48438 70.959 10.854 70.959 12.6313C70.959 14.4282 70.5391 15.832 69.6992 16.8428C68.9619 17.7363 67.9609 18.1831 66.6963 18.1831C65.4219 18.1831 64.416 17.7412 63.6787 16.8574C62.8389 15.8467 62.4189 14.46 62.4189 12.6973ZM64.25 12.624C64.25 13.8594 64.4844 14.7871 64.9531 15.4072C65.4219 16.0225 66.0029 16.3301 66.6963 16.3301C67.3945 16.3301 67.9731 16.0249 68.4321 15.4146C68.8911 14.7993 69.1206 13.8569 69.1206 12.5874C69.1206 11.3423 68.896 10.4219 68.4468 9.82617C68.0024 9.23047 67.4189 8.93262 66.6963 8.93262C65.9736 8.93262 65.3853 9.23291 64.9312 9.8335C64.4771 10.4341 64.25 11.3643 64.25 12.624ZM74.3354 18V9.0791H71.7207V7.2627H78.7153V9.0791H76.1079V18H74.3354ZM79.814 18V7.2627H81.5864V18H79.814ZM88.9326 14.0522L90.6538 14.7188C90.3853 15.9199 89.9385 16.7988 89.3135 17.3555C88.6885 17.9072 87.9194 18.1831 87.0063 18.1831C85.8589 18.1831 84.9287 17.7412 84.2158 16.8574C83.3955 15.8369 82.9854 14.46 82.9854 12.7266C82.9854 10.8955 83.3979 9.4624 84.2231 8.42725C84.9409 7.52881 85.9053 7.07959 87.1162 7.07959C88.1025 7.07959 88.9277 7.4165 89.5918 8.09033C90.0654 8.56885 90.4121 9.2793 90.6318 10.2217L88.874 10.7344C88.7617 10.1533 88.5371 9.70898 88.2002 9.40137C87.8682 9.08887 87.4751 8.93262 87.021 8.93262C86.3716 8.93262 85.8418 9.21582 85.4316 9.78223C85.0215 10.3486 84.8164 11.2837 84.8164 12.5874C84.8164 13.9399 85.0166 14.9019 85.417 15.4731C85.8174 16.0444 86.3374 16.3301 86.9771 16.3301C87.4458 16.3301 87.8511 16.1494 88.1929 15.7881C88.5347 15.4219 88.7812 14.8433 88.9326 14.0522ZM100.109 18H98.1758L97.4067 15.561H93.8911L93.166 18H91.2764L94.7041 7.2627H96.5864L100.109 18ZM96.8354 13.752L95.627 9.76758L94.4331 13.752H96.8354Z" fill="#D60000"/>
<path d="M57.08 21.44H54.292V33H63.149V30.416H57.08V21.44ZM67.9208 21.44H65.1328V33H67.9208V21.44ZM81.7997 21.44H78.9947V28.495L73.1467 21.44H70.3417V33H73.1467V25.928L78.9947 33H81.7997V21.44ZM88.5766 21.236C85.9416 21.236 83.8676 22.8 83.8676 24.908C83.8676 27.475 86.9106 28.121 88.6446 28.529C89.7156 28.784 90.6846 29.039 90.6846 29.77C90.6846 30.263 90.2256 30.79 88.9846 30.79C86.6896 30.79 86.4686 28.954 86.4686 28.954H83.6976C83.6976 30.756 85.2106 33.204 88.8316 33.204C91.5346 33.204 93.4726 31.827 93.4726 29.617C93.4726 27.067 90.9056 26.455 89.0866 25.979C87.4546 25.554 86.6896 25.333 86.6896 24.772C86.6896 24.109 87.7096 23.735 88.5426 23.735C89.7326 23.735 90.4126 24.517 90.4126 25.095H93.1836C93.1836 23.293 91.5856 21.236 88.5766 21.236ZM104.117 33H107.092L102.128 21.44H99.017L94.07 33H97.028L97.793 31.198H103.369L104.117 33ZM98.762 28.92L100.598 24.602L102.4 28.92H98.762ZM117.835 21.44H108.978V33H111.766V29.243H116.832V26.676H111.766V24.024H117.835V21.44ZM127.193 33H130.168L125.204 21.44H122.093L117.146 33H120.104L120.869 31.198H126.445L127.193 33ZM121.838 28.92L123.674 24.602L125.476 28.92H121.838ZM137.647 21.44H132.054V33H134.842V30.127H136.882L138.616 33H142.084L139.704 29.515C140.945 28.852 141.761 27.441 141.761 25.775C141.761 23.259 139.993 21.44 137.647 21.44ZM137.256 24.024C138.191 24.024 138.956 24.823 138.956 25.775C138.956 26.744 138.191 27.543 137.239 27.543H134.842V24.024H137.256ZM158.319 21.44H155.208L151.196 29.923L147.167 21.44H144.073V33H146.861V27.101L149.632 33H152.743L155.514 27.101V33H158.319V21.44ZM170.258 33H173.233L168.269 21.44H165.158L160.211 33H163.169L163.934 31.198H169.51L170.258 33ZM164.903 28.92L166.739 24.602L168.541 28.92H164.903Z" fill="#D60000"/>
<path d="M28.4051 13.5594C22.7479 14.0625 18.2854 16.5779 15.6149 21.9323C13.1552 26.8554 14.1742 32.102 14.104 37.2767C14.104 37.9595 14.631 38.3548 15.3338 38.3548C16.0366 38.3188 16.4582 37.9235 16.5285 37.2408C16.5988 36.7377 16.5636 36.1986 16.5988 35.6956C16.7042 32.8207 16.3879 29.9459 16.8447 27.0711C17.7935 21.1058 23.4507 16.7576 28.9673 16.4701C30.5485 16.3983 31.9892 16.3983 33.3596 16.3983C34.3434 16.3983 35.2921 16.4342 36.3111 16.3983C37.1896 16.3623 38.0329 16.0748 37.9978 14.9608C37.9626 13.8828 37.2247 13.5594 36.276 13.5594C34.9056 13.5594 33.5001 13.5594 32.1297 13.5594C31.3567 13.5594 30.5485 13.5234 29.7755 13.5234C29.3187 13.4875 28.8619 13.4875 28.4051 13.5594Z" fill="#0AA49C"/>
<path d="M19.2693 33.288C19.2693 31.7787 19.3395 30.2694 19.2693 28.7601C19.0233 24.0166 23.6615 18.8419 28.9322 18.8779C32.2352 18.8779 35.5733 18.9138 38.9114 18.9138C39.6493 18.9138 40.3169 19.0216 40.598 19.8481C40.9142 20.7824 40.2466 21.573 39.0519 21.609C35.9246 21.7168 32.7622 21.7886 29.635 21.8246C24.7508 21.8964 21.9046 24.8072 21.8695 29.8022C21.8695 32.7489 21.8695 35.6597 21.8695 38.6064C21.8695 39.2173 21.8343 39.8641 21.2721 40.2594C20.8505 40.5469 20.4288 40.6547 19.972 40.4032C19.4098 40.1157 19.2341 39.5767 19.2341 39.0017C19.2341 37.0612 19.2341 35.1925 19.2693 33.288Z" fill="#FFCE00"/>
<path d="M32.7271 24.3041C34.0272 24.3041 35.3273 24.3041 36.5923 24.3041C37.541 24.3041 38.4546 24.4838 38.4194 25.6697C38.3843 26.7837 37.541 26.9633 36.6274 26.9633C34.3786 26.9633 32.0946 26.9633 29.8458 26.9993C27.7375 27.0352 27.1753 27.6461 27.1402 29.8022C27.1402 31.9224 27.1402 34.0426 27.105 36.1628C27.105 37.169 26.9645 38.2111 25.7346 38.2111C24.4697 38.2111 24.2588 37.169 24.2588 36.0909C24.2588 33.6473 24.2237 31.1678 24.2588 28.7242C24.294 26.1009 25.9455 24.376 28.5105 24.3041C29.9512 24.2682 31.3567 24.3041 32.7271 24.3041Z" fill="#FFCE00"/>
<path d="M14.1391 3.7131C14.0689 4.14433 14.0689 4.57555 14.0689 4.97084C14.0337 7.09103 14.0689 9.21122 13.9986 11.3673C13.9635 13.0204 13.4012 13.5235 11.7849 13.5953C9.43066 13.6672 7.07642 13.7391 4.72218 13.8109C3.94914 13.8469 3.31666 14.0984 3.3518 15.0327C3.3518 15.8952 3.98428 16.1108 4.68704 16.1467C5.88173 16.1827 7.07642 16.1467 8.7279 16.1467C9.14956 16.1108 9.57121 16.1467 10.0631 16.1467C11.047 16.1827 12.1714 16.2186 13.2607 15.8952C15.2636 15.3202 16.2826 13.9906 16.3177 11.9064C16.3528 10.7205 16.4582 9.53464 16.4934 8.3847C16.5285 6.87542 16.5285 5.36613 16.5285 3.85684C16.5285 3.1022 16.1069 2.59911 15.3338 2.59911C15.3338 2.59911 15.3338 2.59911 15.2987 2.59911C14.5959 2.56317 14.2446 3.03033 14.1391 3.7131Z" fill="#08A39D"/>
<path d="M19.0584 7.05509C19.1638 5.36613 18.953 3.38968 19.199 1.41323C19.3044 0.550786 19.5855 -0.0960511 20.5342 0.011755C21.4478 0.0836258 21.5883 0.802333 21.5883 1.55698C21.5883 4.75523 21.5883 7.98941 21.5883 11.1877C21.5883 11.7267 21.5532 12.2298 21.2018 12.661C20.7802 13.1641 20.3234 13.2719 19.0584 13.8469C19.0233 13.8109 19.0584 8.88779 19.0584 7.05509Z" fill="#BF0811"/>
<path d="M7.70889 18.9857C9.43065 18.9857 11.1173 18.9857 12.839 18.9857C13.1904 18.9857 14.0689 18.9857 14.0689 18.9857C13.858 19.5606 13.5769 20.0997 13.331 20.4231C12.8742 21.034 12.3471 21.2855 11.6092 21.2855C8.51706 21.2855 5.42493 21.2855 2.33279 21.2855C1.59489 21.2855 0.856995 21.1058 0.856995 20.1715C0.856995 19.2731 1.55975 19.0216 2.29765 19.0216C4.12482 18.9857 5.91686 18.9857 7.70889 18.9857Z" fill="#BF0811"/>
<path d="M4.44106 24.34C3.59775 24.34 3.10582 24.7713 3.10582 25.6337C3.07068 26.568 3.7383 26.8555 4.4762 26.8914C5.10868 26.9274 5.74116 26.9274 6.37365 26.8914C6.65475 26.8914 6.93585 26.8914 7.2521 26.8914C8.23596 26.8914 9.18468 26.9274 10.1685 26.8914C10.9416 26.8555 11.5389 26.4961 11.5389 25.5978C11.5389 24.7353 10.9416 24.34 10.1334 24.34C9.14954 24.34 8.16568 24.34 7.14668 24.34C6.2331 24.34 5.35465 24.34 4.44106 24.34Z" fill="#08A39D"/>
<path d="M24.5751 3.85691C24.54 4.82716 24.5751 5.83335 24.5751 6.80361C24.5751 7.77386 24.5751 8.78005 24.5751 9.75031C24.5751 10.505 24.8914 11.044 25.6995 11.0799C26.5077 11.1159 26.8942 10.6128 26.8942 9.85812C26.9294 7.84573 26.9294 5.83335 26.8942 3.78504C26.8942 3.10226 26.5077 2.59917 25.805 2.56323C25.7698 2.56323 25.7698 2.56323 25.7347 2.56323C24.9616 2.59917 24.6103 3.1382 24.5751 3.85691Z" fill="#08A39D"/>
</svg>
