<svg width="240" height="33" viewBox="0 0 240 33" fill="none" xmlns="http://www.w3.org/2000/svg">
<path d="M52.3516 14.4961V17.4375H40.6562V14.4961H52.3516ZM48.1094 9.86719V22.2891H44.9102V9.86719H48.1094ZM57.4258 16.2305L54.7305 15.5859L55.7031 6.9375H65.2891V9.66797H58.4805L58.0586 13.4531C58.2852 13.3203 58.6289 13.1797 59.0898 13.0312C59.5508 12.875 60.0664 12.7969 60.6367 12.7969C61.4648 12.7969 62.1992 12.9258 62.8398 13.1836C63.4805 13.4414 64.0234 13.8164 64.4688 14.3086C64.9219 14.8008 65.2656 15.4023 65.5 16.1133C65.7344 16.8242 65.8516 17.6289 65.8516 18.5273C65.8516 19.2852 65.7344 20.0078 65.5 20.6953C65.2656 21.375 64.9102 21.9844 64.4336 22.5234C63.957 23.0547 63.3594 23.4727 62.6406 23.7773C61.9219 24.082 61.0703 24.2344 60.0859 24.2344C59.3516 24.2344 58.6406 24.125 57.9531 23.9062C57.2734 23.6875 56.6602 23.3633 56.1133 22.9336C55.5742 22.5039 55.1406 21.9844 54.8125 21.375C54.4922 20.7578 54.3242 20.0547 54.3086 19.2656H57.6602C57.707 19.75 57.832 20.168 58.0352 20.5195C58.2461 20.8633 58.5234 21.1289 58.8672 21.3164C59.2109 21.5039 59.6133 21.5977 60.0742 21.5977C60.5039 21.5977 60.8711 21.5156 61.1758 21.3516C61.4805 21.1875 61.7266 20.9609 61.9141 20.6719C62.1016 20.375 62.2383 20.0312 62.3242 19.6406C62.418 19.2422 62.4648 18.8125 62.4648 18.3516C62.4648 17.8906 62.4102 17.4727 62.3008 17.0977C62.1914 16.7227 62.0234 16.3984 61.7969 16.125C61.5703 15.8516 61.2812 15.6406 60.9297 15.4922C60.5859 15.3438 60.1836 15.2695 59.7227 15.2695C59.0977 15.2695 58.6133 15.3672 58.2695 15.5625C57.9336 15.7578 57.6523 15.9805 57.4258 16.2305ZM76.2578 6.90234V24H72.8828V10.793L68.8281 12.082V9.42188L75.8945 6.90234H76.2578ZM90.1797 21.4336H90.4023C91.3398 21.4336 92.1445 21.3203 92.8164 21.0938C93.4961 20.8594 94.0547 20.5234 94.4922 20.0859C94.9297 19.6484 95.2539 19.1133 95.4648 18.4805C95.6758 17.8398 95.7812 17.1133 95.7812 16.3008V13.0664C95.7812 12.4492 95.7188 11.9062 95.5938 11.4375C95.4766 10.9688 95.3047 10.582 95.0781 10.2773C94.8594 9.96484 94.6016 9.73047 94.3047 9.57422C94.0156 9.41797 93.6953 9.33984 93.3438 9.33984C92.9688 9.33984 92.6367 9.43359 92.3477 9.62109C92.0586 9.80078 91.8125 10.0469 91.6094 10.3594C91.4141 10.6719 91.2617 11.0312 91.1523 11.4375C91.0508 11.8359 91 12.2539 91 12.6914C91 13.1289 91.0508 13.5469 91.1523 13.9453C91.2539 14.3359 91.4062 14.6836 91.6094 14.9883C91.8125 15.2852 92.0664 15.5234 92.3711 15.7031C92.6758 15.875 93.0352 15.9609 93.4492 15.9609C93.8477 15.9609 94.2031 15.8867 94.5156 15.7383C94.8359 15.582 95.1055 15.3789 95.3242 15.1289C95.5508 14.8789 95.7227 14.6016 95.8398 14.2969C95.9648 13.9922 96.0273 13.6836 96.0273 13.3711L97.1406 13.9805C97.1406 14.5273 97.0234 15.0664 96.7891 15.5977C96.5547 16.1289 96.2266 16.6133 95.8047 17.0508C95.3906 17.4805 94.9102 17.8242 94.3633 18.082C93.8164 18.3398 93.2305 18.4688 92.6055 18.4688C91.8086 18.4688 91.1016 18.3242 90.4844 18.0352C89.8672 17.7383 89.3438 17.332 88.9141 16.8164C88.4922 16.293 88.1719 15.6836 87.9531 14.9883C87.7344 14.293 87.625 13.5391 87.625 12.7266C87.625 11.8984 87.7578 11.1211 88.0234 10.3945C88.2969 9.66797 88.6836 9.02734 89.1836 8.47266C89.6914 7.91797 90.2969 7.48438 91 7.17188C91.7109 6.85156 92.5 6.69141 93.3672 6.69141C94.2344 6.69141 95.0234 6.85937 95.7344 7.19531C96.4453 7.53125 97.0547 8.00781 97.5625 8.625C98.0703 9.23438 98.4609 9.96484 98.7344 10.8164C99.0156 11.668 99.1562 12.6133 99.1562 13.6523V14.8242C99.1562 15.9336 99.0352 16.9648 98.793 17.918C98.5586 18.8711 98.2031 19.7344 97.7266 20.5078C97.2578 21.2734 96.6719 21.9297 95.9688 22.4766C95.2734 23.0234 94.4648 23.4414 93.543 23.7305C92.6211 24.0195 91.5898 24.1641 90.4492 24.1641H90.1797V21.4336ZM113.242 21.3633V24H101.57V21.75L107.09 15.832C107.645 15.2148 108.082 14.6719 108.402 14.2031C108.723 13.7266 108.953 13.3008 109.094 12.9258C109.242 12.543 109.316 12.1797 109.316 11.8359C109.316 11.3203 109.23 10.8789 109.059 10.5117C108.887 10.1367 108.633 9.84766 108.297 9.64453C107.969 9.44141 107.562 9.33984 107.078 9.33984C106.562 9.33984 106.117 9.46484 105.742 9.71484C105.375 9.96484 105.094 10.3125 104.898 10.7578C104.711 11.2031 104.617 11.707 104.617 12.2695H101.23C101.23 11.2539 101.473 10.3242 101.957 9.48047C102.441 8.62891 103.125 7.95313 104.008 7.45312C104.891 6.94531 105.938 6.69141 107.148 6.69141C108.344 6.69141 109.352 6.88672 110.172 7.27734C111 7.66016 111.625 8.21484 112.047 8.94141C112.477 9.66016 112.691 10.5195 112.691 11.5195C112.691 12.082 112.602 12.6328 112.422 13.1719C112.242 13.7031 111.984 14.2344 111.648 14.7656C111.32 15.2891 110.922 15.8203 110.453 16.3594C109.984 16.8984 109.465 17.457 108.895 18.0352L105.93 21.3633H113.242ZM124.059 6.76172H124.551V9.45703H124.352C123.461 9.45703 122.668 9.58984 121.973 9.85547C121.277 10.1211 120.688 10.5 120.203 10.9922C119.727 11.4766 119.359 12.0625 119.102 12.75C118.852 13.4375 118.727 14.207 118.727 15.0586V17.8945C118.727 18.5039 118.785 19.043 118.902 19.5117C119.027 19.9727 119.203 20.3594 119.43 20.6719C119.664 20.9766 119.938 21.207 120.25 21.3633C120.562 21.5117 120.914 21.5859 121.305 21.5859C121.672 21.5859 122.004 21.5078 122.301 21.3516C122.605 21.1953 122.863 20.9766 123.074 20.6953C123.293 20.4062 123.457 20.0703 123.566 19.6875C123.684 19.2969 123.742 18.8711 123.742 18.4102C123.742 17.9492 123.684 17.5234 123.566 17.1328C123.457 16.7422 123.293 16.4062 123.074 16.125C122.855 15.8359 122.59 15.6133 122.277 15.457C121.965 15.3008 121.613 15.2227 121.223 15.2227C120.691 15.2227 120.223 15.3477 119.816 15.5977C119.418 15.8398 119.105 16.1523 118.879 16.5352C118.652 16.918 118.531 17.3203 118.516 17.7422L117.496 17.0859C117.52 16.4844 117.645 15.9141 117.871 15.375C118.105 14.8359 118.426 14.3594 118.832 13.9453C119.246 13.5234 119.742 13.1953 120.32 12.9609C120.898 12.7188 121.551 12.5977 122.277 12.5977C123.074 12.5977 123.773 12.75 124.375 13.0547C124.984 13.3594 125.492 13.7773 125.898 14.3086C126.305 14.8398 126.609 15.4531 126.812 16.1484C127.016 16.8438 127.117 17.5859 127.117 18.375C127.117 19.2031 126.98 19.9727 126.707 20.6836C126.441 21.3945 126.055 22.0156 125.547 22.5469C125.047 23.0781 124.445 23.4922 123.742 23.7891C123.039 24.0859 122.25 24.2344 121.375 24.2344C120.469 24.2344 119.645 24.0703 118.902 23.7422C118.168 23.4062 117.535 22.9375 117.004 22.3359C116.473 21.7344 116.062 21.0195 115.773 20.1914C115.492 19.3633 115.352 18.457 115.352 17.4727V16.1602C115.352 14.7852 115.551 13.5273 115.949 12.3867C116.355 11.2383 116.938 10.2461 117.695 9.41016C118.453 8.56641 119.367 7.91406 120.438 7.45312C121.508 6.99219 122.715 6.76172 124.059 6.76172ZM138.285 16.2305L135.59 15.5859L136.562 6.9375H146.148V9.66797H139.34L138.918 13.4531C139.145 13.3203 139.488 13.1797 139.949 13.0312C140.41 12.875 140.926 12.7969 141.496 12.7969C142.324 12.7969 143.059 12.9258 143.699 13.1836C144.34 13.4414 144.883 13.8164 145.328 14.3086C145.781 14.8008 146.125 15.4023 146.359 16.1133C146.594 16.8242 146.711 17.6289 146.711 18.5273C146.711 19.2852 146.594 20.0078 146.359 20.6953C146.125 21.375 145.77 21.9844 145.293 22.5234C144.816 23.0547 144.219 23.4727 143.5 23.7773C142.781 24.082 141.93 24.2344 140.945 24.2344C140.211 24.2344 139.5 24.125 138.812 23.9062C138.133 23.6875 137.52 23.3633 136.973 22.9336C136.434 22.5039 136 21.9844 135.672 21.375C135.352 20.7578 135.184 20.0547 135.168 19.2656H138.52C138.566 19.75 138.691 20.168 138.895 20.5195C139.105 20.8633 139.383 21.1289 139.727 21.3164C140.07 21.5039 140.473 21.5977 140.934 21.5977C141.363 21.5977 141.73 21.5156 142.035 21.3516C142.34 21.1875 142.586 20.9609 142.773 20.6719C142.961 20.375 143.098 20.0312 143.184 19.6406C143.277 19.2422 143.324 18.8125 143.324 18.3516C143.324 17.8906 143.27 17.4727 143.16 17.0977C143.051 16.7227 142.883 16.3984 142.656 16.125C142.43 15.8516 142.141 15.6406 141.789 15.4922C141.445 15.3438 141.043 15.2695 140.582 15.2695C139.957 15.2695 139.473 15.3672 139.129 15.5625C138.793 15.7578 138.512 15.9805 138.285 16.2305ZM160.562 21.3633V24H148.891V21.75L154.41 15.832C154.965 15.2148 155.402 14.6719 155.723 14.2031C156.043 13.7266 156.273 13.3008 156.414 12.9258C156.562 12.543 156.637 12.1797 156.637 11.8359C156.637 11.3203 156.551 10.8789 156.379 10.5117C156.207 10.1367 155.953 9.84766 155.617 9.64453C155.289 9.44141 154.883 9.33984 154.398 9.33984C153.883 9.33984 153.438 9.46484 153.062 9.71484C152.695 9.96484 152.414 10.3125 152.219 10.7578C152.031 11.2031 151.938 11.707 151.938 12.2695H148.551C148.551 11.2539 148.793 10.3242 149.277 9.48047C149.762 8.62891 150.445 7.95313 151.328 7.45312C152.211 6.94531 153.258 6.69141 154.469 6.69141C155.664 6.69141 156.672 6.88672 157.492 7.27734C158.32 7.66016 158.945 8.21484 159.367 8.94141C159.797 9.66016 160.012 10.5195 160.012 11.5195C160.012 12.082 159.922 12.6328 159.742 13.1719C159.562 13.7031 159.305 14.2344 158.969 14.7656C158.641 15.2891 158.242 15.8203 157.773 16.3594C157.305 16.8984 156.785 17.457 156.215 18.0352L153.25 21.3633H160.562ZM174.625 17.625V20.2734H162.332L162.168 18.2227L169.281 6.9375H171.965L169.059 11.8008L165.52 17.625H174.625ZM172.691 6.9375V24H169.316V6.9375H172.691ZM194.02 6.9375V8.75391L187.422 24H183.859L190.457 9.57422H181.961V6.9375H194.02ZM207.707 19.3242C207.707 20.3945 207.457 21.2969 206.957 22.0312C206.457 22.7578 205.77 23.3086 204.895 23.6836C204.027 24.0508 203.043 24.2344 201.941 24.2344C200.84 24.2344 199.852 24.0508 198.977 23.6836C198.102 23.3086 197.41 22.7578 196.902 22.0312C196.395 21.2969 196.141 20.3945 196.141 19.3242C196.141 18.6055 196.285 17.957 196.574 17.3789C196.863 16.793 197.266 16.293 197.781 15.8789C198.305 15.457 198.918 15.1367 199.621 14.918C200.324 14.6914 201.09 14.5781 201.918 14.5781C203.027 14.5781 204.02 14.7734 204.895 15.1641C205.77 15.5547 206.457 16.1055 206.957 16.8164C207.457 17.5273 207.707 18.3633 207.707 19.3242ZM204.309 19.1016C204.309 18.5781 204.207 18.1289 204.004 17.7539C203.809 17.3711 203.531 17.0781 203.172 16.875C202.812 16.6719 202.395 16.5703 201.918 16.5703C201.441 16.5703 201.023 16.6719 200.664 16.875C200.305 17.0781 200.023 17.3711 199.82 17.7539C199.625 18.1289 199.527 18.5781 199.527 19.1016C199.527 19.6172 199.625 20.0625 199.82 20.4375C200.023 20.8125 200.305 21.1016 200.664 21.3047C201.031 21.5 201.457 21.5977 201.941 21.5977C202.426 21.5977 202.844 21.5 203.195 21.3047C203.555 21.1016 203.828 20.8125 204.016 20.4375C204.211 20.0625 204.309 19.6172 204.309 19.1016ZM207.344 11.4609C207.344 12.3281 207.113 13.0977 206.652 13.7695C206.191 14.4336 205.551 14.9531 204.73 15.3281C203.918 15.7031 202.988 15.8906 201.941 15.8906C200.887 15.8906 199.949 15.7031 199.129 15.3281C198.309 14.9531 197.668 14.4336 197.207 13.7695C196.746 13.0977 196.516 12.3281 196.516 11.4609C196.516 10.4297 196.746 9.5625 197.207 8.85938C197.676 8.14844 198.316 7.60937 199.129 7.24219C199.949 6.875 200.879 6.69141 201.918 6.69141C202.973 6.69141 203.906 6.875 204.719 7.24219C205.539 7.60937 206.18 8.14844 206.641 8.85938C207.109 9.5625 207.344 10.4297 207.344 11.4609ZM203.969 11.6133C203.969 11.1523 203.887 10.7539 203.723 10.418C203.559 10.0742 203.324 9.80859 203.02 9.62109C202.723 9.43359 202.355 9.33984 201.918 9.33984C201.496 9.33984 201.133 9.42969 200.828 9.60938C200.531 9.78906 200.301 10.0508 200.137 10.3945C199.98 10.7305 199.902 11.1367 199.902 11.6133C199.902 12.0742 199.98 12.4805 200.137 12.832C200.301 13.1758 200.535 13.4453 200.84 13.6406C201.145 13.8359 201.512 13.9336 201.941 13.9336C202.371 13.9336 202.734 13.8359 203.031 13.6406C203.336 13.4453 203.566 13.1758 203.723 12.832C203.887 12.4805 203.969 12.0742 203.969 11.6133ZM212.383 21.4336H212.605C213.543 21.4336 214.348 21.3203 215.02 21.0938C215.699 20.8594 216.258 20.5234 216.695 20.0859C217.133 19.6484 217.457 19.1133 217.668 18.4805C217.879 17.8398 217.984 17.1133 217.984 16.3008V13.0664C217.984 12.4492 217.922 11.9062 217.797 11.4375C217.68 10.9688 217.508 10.582 217.281 10.2773C217.062 9.96484 216.805 9.73047 216.508 9.57422C216.219 9.41797 215.898 9.33984 215.547 9.33984C215.172 9.33984 214.84 9.43359 214.551 9.62109C214.262 9.80078 214.016 10.0469 213.812 10.3594C213.617 10.6719 213.465 11.0312 213.355 11.4375C213.254 11.8359 213.203 12.2539 213.203 12.6914C213.203 13.1289 213.254 13.5469 213.355 13.9453C213.457 14.3359 213.609 14.6836 213.812 14.9883C214.016 15.2852 214.27 15.5234 214.574 15.7031C214.879 15.875 215.238 15.9609 215.652 15.9609C216.051 15.9609 216.406 15.8867 216.719 15.7383C217.039 15.582 217.309 15.3789 217.527 15.1289C217.754 14.8789 217.926 14.6016 218.043 14.2969C218.168 13.9922 218.23 13.6836 218.23 13.3711L219.344 13.9805C219.344 14.5273 219.227 15.0664 218.992 15.5977C218.758 16.1289 218.43 16.6133 218.008 17.0508C217.594 17.4805 217.113 17.8242 216.566 18.082C216.02 18.3398 215.434 18.4688 214.809 18.4688C214.012 18.4688 213.305 18.3242 212.688 18.0352C212.07 17.7383 211.547 17.332 211.117 16.8164C210.695 16.293 210.375 15.6836 210.156 14.9883C209.938 14.293 209.828 13.5391 209.828 12.7266C209.828 11.8984 209.961 11.1211 210.227 10.3945C210.5 9.66797 210.887 9.02734 211.387 8.47266C211.895 7.91797 212.5 7.48438 213.203 7.17188C213.914 6.85156 214.703 6.69141 215.57 6.69141C216.438 6.69141 217.227 6.85937 217.938 7.19531C218.648 7.53125 219.258 8.00781 219.766 8.625C220.273 9.23438 220.664 9.96484 220.938 10.8164C221.219 11.668 221.359 12.6133 221.359 13.6523V14.8242C221.359 15.9336 221.238 16.9648 220.996 17.918C220.762 18.8711 220.406 19.7344 219.93 20.5078C219.461 21.2734 218.875 21.9297 218.172 22.4766C217.477 23.0234 216.668 23.4414 215.746 23.7305C214.824 24.0195 213.793 24.1641 212.652 24.1641H212.383V21.4336Z" fill="white"/>
<path d="M5.52024 2.78021C5.73609 2.62278 5.94395 2.47322 6.1598 2.31578C6.24774 2.27642 6.33568 2.22919 6.39164 2.15048C6.64746 2.00091 6.91128 1.85135 7.16711 1.70966C7.23106 1.66243 7.319 1.65456 7.37496 1.58372C7.38296 1.56797 7.39895 1.5601 7.40694 1.54436C7.83864 1.35544 8.26235 1.15865 8.69406 0.977597C9.32562 0.717831 9.98117 0.521039 10.6447 0.363606C11.2363 0.221915 11.8279 0.111712 12.4275 0.05661C12.8592 0.0172516 13.2989 -0.00636345 13.7386 0.00150823C14.3302 0.00937991 14.9218 -0.0142351 15.5054 0.05661C15.9611 0.111712 16.4168 0.166814 16.8644 0.269145C17.4081 0.395092 17.9437 0.513167 18.4713 0.686344C18.6792 0.749318 18.8871 0.820163 19.0869 0.891008C19.1669 0.953982 19.2708 0.969725 19.3587 1.00908C19.4467 1.04844 19.5186 1.11929 19.6305 1.12716C19.7105 1.15865 19.7665 1.22949 19.8624 1.22162C20.0303 1.30034 20.2062 1.37905 20.374 1.45777C20.414 1.52861 20.502 1.52074 20.5659 1.5601C21.0456 1.84348 21.5252 2.11899 21.9809 2.44173C22.9882 3.15018 23.8996 3.96096 24.7071 4.88982C25.2267 5.48807 25.6984 6.10206 26.0981 6.77902C26.1541 6.85774 26.1781 6.94433 26.25 7.0073C26.4818 7.46386 26.7297 7.91255 26.9215 8.38485C27.2813 9.24286 27.5531 10.1245 27.721 11.0376C27.8569 11.7618 27.9368 12.486 27.9848 13.2259C28.0328 14.0446 27.9608 14.8475 27.8569 15.6583C27.713 16.7761 27.4172 17.8466 27.0255 18.9014C27.0015 18.9565 26.9535 19.0037 26.9615 19.0667C26.9056 19.1376 26.8656 19.2084 26.8656 19.295C26.7537 19.4839 26.6577 19.6807 26.5858 19.8932C26.5218 19.9956 26.4659 20.0979 26.4019 20.1924C25.6184 21.625 24.5951 22.8766 23.364 23.9708C22.5006 24.7422 21.5572 25.3877 20.5419 25.9466C20.406 26.0174 20.2701 26.0883 20.1422 26.1512C19.8384 26.285 19.5346 26.411 19.2308 26.5448C18.7432 26.718 18.2555 26.8912 17.7438 27.025C17.2802 27.1431 16.8165 27.2296 16.3448 27.3162C15.4254 27.4894 14.4981 27.5288 13.5627 27.5052C13.4028 27.5052 13.2509 27.4973 13.091 27.4737C12.8192 27.4343 12.5794 27.513 12.3316 27.6232C11.5881 27.9538 10.8126 28.1979 10.0211 28.4025C9.96518 28.4104 9.90922 28.3947 9.86126 28.434C9.82128 28.4419 9.78931 28.4419 9.74933 28.4498C9.66139 28.434 9.58944 28.4576 9.51749 28.497C9.48551 28.5049 9.44554 28.5049 9.41356 28.5127C9.23768 28.5363 9.0618 28.5285 8.90191 28.6229C8.85395 28.6229 8.81398 28.6229 8.76601 28.6308C8.55016 28.6229 8.3423 28.6702 8.12645 28.6938C7.99854 28.7095 7.85463 28.6544 7.74271 28.7568C7.70274 28.7568 7.66277 28.7568 7.62279 28.7568C7.53485 28.6623 7.43092 28.7489 7.34299 28.7489C6.53554 28.7646 5.72809 28.7174 4.92065 28.6623C4.90466 28.6544 4.89666 28.6466 4.88068 28.6387C4.71279 28.6151 4.53691 28.6151 4.37702 28.5678C4.2571 28.5678 4.16117 28.4891 4.04125 28.497C4.01727 28.4891 3.9693 28.4891 3.96131 28.4734C3.94532 28.4183 4.00927 28.4025 4.04125 28.3868C4.20914 28.3081 4.37702 28.2451 4.54491 28.1664C4.60087 28.1428 4.65683 28.1113 4.7048 28.0798C4.76076 28.0483 4.83271 28.0404 4.88068 27.9775C5.15249 27.8673 5.39232 27.7256 5.61617 27.5445C5.69612 27.5052 5.79205 27.4815 5.83202 27.3871C5.91197 27.3871 5.93595 27.3005 5.99991 27.2769C6.07985 27.2611 6.12782 27.206 6.16779 27.1431C6.47958 26.9305 6.75139 26.6786 6.98323 26.3795C7.05518 26.348 7.08716 26.2929 7.11914 26.2221C7.12713 26.2221 7.12713 26.2221 7.13513 26.2142C7.4709 25.86 7.41494 25.8993 7.07117 25.7025C6.35966 25.3011 5.69612 24.8288 5.06455 24.3093C4.08922 23.4985 3.22581 22.5854 2.48232 21.5699C2.14655 21.1055 1.85076 20.6174 1.56295 20.1215C1.53897 20.0349 1.491 19.9562 1.42705 19.8932C1.3551 19.6965 1.26716 19.5075 1.15523 19.3344C1.14724 19.2163 1.08328 19.1297 1.02732 19.0352C0.891415 18.6416 0.731525 18.2638 0.611607 17.8623C0.427733 17.2405 0.275837 16.6108 0.179903 15.9731C0.0280075 14.9971 -0.0359486 14.0131 0.020013 13.0291C0.0599856 12.2813 0.147925 11.5414 0.299821 10.8093C0.443722 10.1166 0.643585 9.43965 0.899409 8.77843C0.963365 8.60525 1.03532 8.43208 1.10727 8.25103C1.18721 8.18806 1.16323 8.08572 1.22718 8.01488C1.45103 7.53471 1.69886 7.0624 1.97867 6.61372C1.98666 6.60585 1.99466 6.59798 2.00265 6.58223C2.01065 6.55862 2.01065 6.54287 2.01864 6.51926C2.0746 6.48777 2.10658 6.44841 2.11457 6.38544C2.28246 6.14142 2.45834 5.8974 2.62622 5.65337C2.69817 5.59827 2.74614 5.5353 2.78611 5.45658C2.83408 5.39361 2.90603 5.33851 2.93001 5.25979C3.02595 5.20469 3.07392 5.11023 3.12988 5.02364C3.32974 4.80323 3.5376 4.57495 3.73746 4.35455C3.81741 4.27583 3.88936 4.19711 3.9693 4.12627C4.05724 4.03968 4.15318 3.94522 4.24111 3.85863C4.30507 3.80353 4.38502 3.7563 4.409 3.66971C4.54491 3.62248 4.60087 3.49653 4.7048 3.42569C4.77675 3.3942 4.82471 3.33123 4.87268 3.26826C5.01658 3.18954 5.12051 3.05572 5.24842 2.96126C5.36035 2.90616 5.44029 2.84318 5.52024 2.78021ZM3.00996 18.2874C3.01795 18.3268 3.01795 18.374 3.03394 18.4134C3.20982 18.7991 3.3857 19.1769 3.60155 19.539C4.2571 20.6883 5.09653 21.6959 6.10384 22.5696C6.85532 23.2151 7.65477 23.7976 8.55016 24.2463C8.96587 24.4588 9.38958 24.6635 9.82928 24.8288C9.96518 24.8839 10.0052 24.9469 9.95719 25.0807C9.90922 25.1988 9.89323 25.3247 9.84527 25.4428C9.56546 26.1827 9.0618 26.7416 8.38227 27.1431C8.32631 27.1745 8.20639 27.206 8.23837 27.2769C8.27035 27.3635 8.37428 27.3084 8.44623 27.3005C8.47021 27.3005 8.49419 27.2926 8.51018 27.2926C9.26966 27.2375 9.98917 27.0407 10.6927 26.7573C11.3562 26.4897 11.9558 26.104 12.4994 25.6317C12.5554 25.5845 12.6114 25.553 12.6913 25.553C13.2349 25.5451 13.7706 25.5451 14.3142 25.5215C14.7299 25.5058 15.1456 25.4743 15.5533 25.4192C16.2169 25.3326 16.8644 25.183 17.504 24.9862C18.4634 24.695 19.3827 24.3093 20.2381 23.7819C21.5812 22.9632 22.6845 21.9005 23.6278 20.6568C24.9629 18.8935 25.6824 16.9099 25.8343 14.7216C25.9062 13.6746 25.8503 12.6277 25.6344 11.5965C25.3946 10.4472 25.0428 9.33732 24.4672 8.30613C23.8437 7.18048 23.0442 6.19652 22.0929 5.33064C21.3174 4.63006 20.486 4.00819 19.5586 3.52015C18.943 3.19741 18.3035 2.89829 17.6239 2.70937C17.496 2.62278 17.3521 2.62278 17.2082 2.57555C16.7365 2.45747 16.2649 2.34727 15.7772 2.2843C14.8338 2.15835 13.8825 2.15835 12.9391 2.22919C12.1237 2.29217 11.3163 2.41811 10.5248 2.64639C9.76532 2.8668 9.03782 3.15018 8.35029 3.52015C6.83134 4.3388 5.59219 5.45658 4.54491 6.7869C3.63353 7.9519 2.946 9.21925 2.53029 10.6361C2.27447 11.4942 2.13856 12.3758 2.11457 13.2653C2.09059 14.0288 2.14655 14.7924 2.25048 15.5481C2.31444 16.0282 2.39438 16.5084 2.54628 16.9729C2.53828 17.0594 2.55427 17.1382 2.60224 17.2169C2.69018 17.4688 2.76213 17.7285 2.87405 17.9726C2.89004 18.067 2.91403 18.1615 2.97798 18.2402C2.97798 18.2717 2.98598 18.2874 3.00996 18.2874Z" fill="white"/>
<path d="M17.6601 16.8879C17.716 17.051 17.8597 17.1407 17.9555 17.2711C18.3947 17.8174 18.754 18.4044 18.8818 19.1138C18.9776 19.6682 18.8977 20.1574 18.5304 20.614C17.9076 21.3804 17.197 22.0245 16.3346 22.5137C15.9274 22.742 15.5361 22.7339 15.1209 22.6442C14.5221 22.5219 13.9632 22.3181 13.4601 21.9756C13.1008 21.7229 12.7894 21.4049 12.462 21.1032C11.2404 19.9699 10.0985 18.7469 9.08447 17.4097C8.45367 16.5781 7.87079 15.7138 7.38372 14.7844C7.35976 14.7436 7.34379 14.7028 7.30387 14.6784C7.2879 14.6131 7.27992 14.5398 7.20805 14.5071C7.15216 14.3359 7.07231 14.1647 6.96053 14.0261C6.95254 13.9364 6.89665 13.863 6.86471 13.7897C6.79285 13.651 6.72897 13.5124 6.6571 13.3738C6.61718 13.2841 6.56927 13.1863 6.52935 13.0966C6.27384 12.5259 6.09817 11.9225 6.05825 11.2947C6.02631 10.6425 6.17802 10.0391 6.50539 9.46838C6.86471 8.84057 7.29588 8.28614 7.94265 7.93555C8.27801 7.74802 8.63732 7.64203 9.01261 7.5768C9.14835 7.55234 9.2761 7.5768 9.40386 7.65018C10.402 8.17199 11.0647 9.00364 11.4879 10.0391C11.6795 10.5039 11.8472 10.9767 11.8232 11.4986C11.8153 11.6861 11.7673 11.841 11.6476 11.9796C11.2244 12.4607 10.7533 12.8683 10.1065 13.0069C9.97876 13.0314 9.98675 13.1129 10.0187 13.2108C10.2822 13.9201 10.6575 14.5642 11.1366 15.1431C11.6795 15.7954 12.3023 16.3743 12.973 16.8798C13.0848 16.9613 13.1647 16.9776 13.2765 16.8798C13.6837 16.5455 14.0989 16.2193 14.5221 15.9095C14.9213 15.616 15.3765 15.5997 15.8476 15.6894C16.2149 15.7628 16.5422 15.934 16.8456 16.1623C16.8696 16.2193 16.9255 16.2438 16.9734 16.2683C17.0692 16.3824 17.173 16.4966 17.3167 16.5455C17.3167 16.5699 17.3327 16.5781 17.3487 16.5781C17.3487 16.6026 17.3647 16.6107 17.3806 16.6107C17.3806 16.6352 17.3966 16.6433 17.4126 16.6433C17.4126 16.6678 17.4285 16.6759 17.4445 16.6759C17.4605 16.7738 17.5164 16.8308 17.6122 16.8472C17.6282 16.8798 17.6361 16.8879 17.6601 16.8879Z" fill="white"/>
<path d="M13.8185 5.58535C13.9703 5.52773 14.0377 5.36309 14.2064 5.3384C14.2907 5.32194 14.3834 5.3137 14.4678 5.29724C15.1676 5.39602 15.8506 5.54419 16.5168 5.79114C17.6298 6.20272 18.5995 6.81186 19.4427 7.62679C20.7749 8.92739 21.5844 10.4832 21.8627 12.3024C21.9723 13.0267 21.9723 13.7594 21.8711 14.4837C21.8289 14.7883 21.576 15.0517 21.264 15.1176C20.952 15.1834 20.6232 15.06 20.4292 14.8048C20.3955 14.7636 20.3702 14.7225 20.3365 14.6731C20.3196 14.6155 20.3027 14.5496 20.2774 14.492C20.2859 14.352 20.2943 14.2121 20.3027 14.0804C20.3449 14.0228 20.3365 13.9652 20.3196 13.9075C20.3196 13.8499 20.328 13.7923 20.328 13.7347C20.3449 13.6524 20.3449 13.5618 20.328 13.4795C20.3449 13.4136 20.3449 13.3478 20.328 13.2902C20.3365 13.2078 20.3533 13.1173 20.3112 13.035C20.2774 12.1871 20.0582 11.3804 19.6788 10.6149C19.3162 9.87403 18.8271 9.22373 18.22 8.65575C17.2756 7.77496 16.1542 7.21521 14.8809 6.94357C14.746 6.91064 14.6027 6.90241 14.4593 6.87772C14.3834 6.86125 14.3076 6.85302 14.2317 6.83656C13.9112 6.73778 13.7089 6.54022 13.633 6.21095C13.5993 6.06278 13.6499 5.92285 13.6667 5.78291C13.7257 5.72529 13.7763 5.65943 13.8185 5.58535Z" fill="white"/>
<path d="M18.0671 14.3784C17.5621 14.2784 17.3457 13.9937 17.3858 13.5013C17.5221 11.901 16.6163 10.5238 15.0612 9.95446C14.7886 9.85444 14.5081 9.81597 14.2275 9.76211C13.8027 9.67748 13.5622 9.32357 13.6343 8.90041C13.6985 8.55419 14.0912 8.27721 14.476 8.33106C15.2856 8.43878 16.0391 8.69267 16.7124 9.14661C17.8587 9.91599 18.5802 10.9623 18.8367 12.2934C18.9409 12.8319 18.9489 13.3782 18.8447 13.9245C18.8046 13.9937 18.7565 14.0553 18.7164 14.1245C18.6042 14.2399 18.4759 14.3245 18.3076 14.3553C18.2836 14.3476 18.2755 14.3553 18.2675 14.3784C18.2034 14.3784 18.1313 14.3784 18.0671 14.3784Z" fill="white"/>
</svg>
