<svg width="32" height="22" viewBox="0 0 32 22" fill="none" xmlns="http://www.w3.org/2000/svg">
<path d="M12.8 15.7165V6.28355L21.12 11L12.8 15.7165Z" fill="white"/>
<path d="M31.3249 3.43469C31.1428 2.77025 30.7862 2.16443 30.2908 1.67788C29.7955 1.19132 29.1787 0.841092 28.5022 0.662245C26.0109 1.54271e-07 16 0 16 0C16 0 5.98911 1.54271e-07 3.49781 0.662245C2.82133 0.841092 2.20453 1.19132 1.70915 1.67788C1.21378 2.16443 0.857198 2.77025 0.675109 3.43469C0.209929 5.9302 -0.01581 8.46307 0.00085988 11C-0.01581 13.5369 0.209929 16.0698 0.675109 18.5653C0.857198 19.2298 1.21378 19.8356 1.70915 20.3221C2.20453 20.8087 2.82133 21.1589 3.49781 21.3378C5.98911 22 16 22 16 22C16 22 26.0109 22 28.5022 21.3378C29.1787 21.1589 29.7955 20.8087 30.2908 20.3221C30.7862 19.8356 31.1428 19.2298 31.3249 18.5653C31.7901 16.0698 32.0158 13.5369 31.9991 11C32.0158 8.46307 31.7901 5.9302 31.3249 3.43469ZM12.8002 15.7143V6.28572L21.1083 11L12.8002 15.7143Z" fill="#FC0100"/>
</svg>
